<svg height="512pt" viewBox="0 0 512 512" width="512pt" xmlns="http://www.w3.org/2000/svg"><path d="m512 512h-91l-15-30-15 30h-60l-30-30h-90l-30 30h-60l-15-30-15 30h-91l50.199219-190.601562c.601562-2.097657 1.5-3.597657 2.101562-5.699219l203.699219 45.300781 203.699219-45.300781c.601562 2.101562 1.5 3.601562 2.101562 5.699219zm0 0" fill="#725d57"/><path d="m512 512h-91l-15-30-15 30h-60l-30-30h-45v-121l203.699219-45.300781c.601562 2.101562 1.5 3.601562 2.101562 5.699219zm0 0" fill="#53433f"/><path d="m331 361v151h-30l-15-30-15 30h-30l-15-30-15 30h-30v-151zm0 0" fill="#ffb64c"/><path d="m331 361v151h-30l-15-30-15 30h-15v-151zm0 0" fill="#ff9c5e"/><path d="m211 391h30v121h-30zm0 0" fill="#ffd396"/><path d="m271 391h30v121h-30zm0 0" fill="#ffb64c"/><path d="m154.636719 260.949219c-16.640625 5.671875-30.734375 9.121093-42.660157 11.851562-27.953124 6.398438-48.484374 11.488281-59.636718 42.910157l25.226562 28.382812c46.066406 51.804688 121.050782 84.074219 178.375 46.90625h.058594zm0 0" fill="#ffb64c"/><path d="m399.421875 272.421875c-11.636719-2.621094-25.339844-5.933594-41.382813-11.308594l-102.039062 129.886719h-.058594c54.976563 35.917969 131.394532 6.0625 178.492188-46.902344l25.210937-28.371094c-11.371093-31.886718-33.042969-37.164062-60.222656-43.304687zm0 0" fill="#ff9c5e"/><path d="m358 261.097656c-9.597656 54-44.398438 101.101563-95.402344 126.601563l-6.597656 3.300781-6.597656-3.300781c-51.300782-25.800781-84.902344-73.199219-94.800782-126.898438 10.199219-3.300781 20.699219-7.203125 33.296876-12.902343h136.203124c12.597657 5.699218 23.699219 9.902343 33.898438 13.199218zm0 0" fill="#fff5f5"/><path d="m358 261.097656c-9.597656 54-44.398438 101.101563-95.402344 126.601563l-6.597656 3.300781v-143.101562h68.101562c12.597657 5.699218 23.699219 9.902343 33.898438 13.199218zm0 0" fill="#efe2dd"/><path d="m361 85.800781v110.199219c0 57.898438-47.101562 105-105 105s-105-47.101562-105-105v-110.199219l105-24.898437zm0 0" fill="#c6715a"/><path d="m361 85.800781v110.199219c0 57.898438-47.101562 105-105 105v-240.097656zm0 0" fill="#b35f49"/><path d="m361 15v70.800781l-105 35.101563-105-35.101563v-70.800781zm0 0" fill="#53433f"/><path d="m361 15v70.800781l-105 35.101563v-105.902344zm0 0" fill="#3e322e"/><path d="m421.144531 122.125-15-105 29.710938-4.25 15 105zm0 0" fill="#ffb64c"/><path d="m301 196c0 24.902344-20.097656 45-45 45s-45-20.097656-45-45h30c0 8.402344 6.597656 15 15 15s15-6.597656 15-15zm0 0" fill="#725d57"/><path d="m91 421h30v91h-30zm0 0" fill="#53433f"/><path d="m391 421h30v91h-30zm0 0" fill="#3e322e"/><path d="m256 241v-30c8.402344 0 15-6.597656 15-15h30c0 24.902344-20.097656 45-45 45zm0 0" fill="#53433f"/><path d="m61 0h390v30h-390zm0 0" fill="#725d57"/><path d="m256 0h195v30h-195zm0 0" fill="#53433f"/></svg>