<svg height="512pt" viewBox="0 0 512 512" width="512pt" xmlns="http://www.w3.org/2000/svg"><path d="m91 0h330v331h-330zm0 0" fill="#fff5f5"/><path d="m256 0h165v331h-165zm0 0" fill="#efe2dd"/><path d="m512 301v211h-512v-211l30-30h452zm0 0" fill="#ffd396"/><path d="m512 301v211h-256v-241h226zm0 0" fill="#ffb64c"/><g fill="#e1d3ce"><path d="m211 61h90v30h-90zm0 0"/><path d="m151 121h210v30h-210zm0 0"/><path d="m151 181h90v30h-90zm0 0"/></g><path d="m256 61h45v30h-45zm0 0" fill="#cdbfba"/><path d="m256 121h105v30h-105zm0 0" fill="#cdbfba"/><path d="m512 181v120h-512v-60h249.699219l60-60zm0 0" fill="#ffb64c"/><path d="m512 181v120h-256v-66.300781l53.699219-53.699219zm0 0" fill="#ff9c5e"/></svg>