<svg height="512pt" viewBox="-61 0 512 512" width="512pt" xmlns="http://www.w3.org/2000/svg"><path d="m390 30v482h-390v-482h90l30 30h150l30-30zm0 0" fill="#c6715a"/><path d="m390 30v482h-195v-452h75l30-30zm0 0" fill="#b35f49"/><path d="m330 90v362h-270v-362h30l30-30h150l30 30zm0 0" fill="#fff5f5"/><path d="m330 90v362h-135v-392h75l30 30zm0 0" fill="#efe2dd"/><path d="m195 162.699219c-7.800781-7.203125-18.300781-11.699219-30-11.699219-24.902344 0-45 20.097656-45 45v75h30v-30h30v30h30v-75c0-13.199219-5.699219-25.199219-15-33.300781zm-15 48.300781h-30v-15c0-8.402344 6.597656-15 15-15s15 6.597656 15 15zm0 0" fill="#ff637b"/><path d="m210 271h-15v-108.300781c9.300781 8.101562 15 20.101562 15 33.300781zm0 0" fill="#e63950"/><path d="m300 30v60h-210v-60h50.699219l15-30h78.601562l15 30zm0 0" fill="#ffb64c"/><path d="m300 30v60h-105v-90h39.300781l15 30zm0 0" fill="#ff9c5e"/><path d="m120 361h150v30h-150zm0 0" fill="#efe2dd"/><path d="m120 301h150v30h-150zm0 0" fill="#efe2dd"/><g fill="#e1d3ce"><path d="m195 301h75v30h-75zm0 0"/><path d="m195 361h75v30h-75zm0 0"/></g></svg>