<svg height="512pt" viewBox="0 0 512 512" width="512pt" xmlns="http://www.w3.org/2000/svg"><path d="m476.800781 0-12.902343 45-72.597657 75h-271.601562l-72.597657-75-12.902343-45zm0 0" fill="#e63950"/><path d="m476.800781 0-12.902343 45-72.597657 75h-135.300781v-120zm0 0" fill="#ae2538"/><path d="m512 108.300781-197.199219 232.097657-58.800781-.597657-56.699219-.601562-199.300781-230.898438 34.199219-108.300781 221.800781 232.199219 220.800781-232.199219zm0 0" fill="#ff637b"/><path d="m512 108.300781-197.199219 232.097657-58.800781-.597657v-107.601562l220.800781-232.199219zm0 0" fill="#e63950"/><path d="m256 301c-57.898438 0-105 48.101562-105 106s47.101562 105 105 105 105-47.101562 105-105-47.101562-106-105-106zm0 0" fill="#ffd396"/><path d="m361 407c0 57.898438-47.101562 105-105 105v-211c57.898438 0 105 48.101562 105 106zm0 0" fill="#ffb64c"/><path d="m301 407c0 24.898438-20.097656 45-45 45s-45-20.101562-45-45c0-24.902344 20.097656-45 45-45s45 20.097656 45 45zm0 0" fill="#ffb64c"/><path d="m301 407c0 24.898438-20.097656 45-45 45v-90c24.902344 0 45 20.097656 45 45zm0 0" fill="#ff9c5e"/></svg>