<svg height="512pt" viewBox="-61 0 512 512" width="512pt" xmlns="http://www.w3.org/2000/svg"><path d="m0 0v512h390v-512zm0 0" fill="#ff637b"/><path d="m195 0h195v512h-195zm0 0" fill="#e63950"/><path d="m60 241v210h270v-210zm0 0" fill="#725d57"/><path d="m195 241h135v210h-135zm0 0" fill="#53433f"/><path d="m60 60v151h270v-151zm0 0" fill="#fff5f5"/><path d="m195 60h135v151h-135zm0 0" fill="#efe2dd"/><path d="m240 121h30v30h-30zm0 0" fill="#53433f"/><path d="m180 121h30v30h-30zm0 0" fill="#725d57"/><path d="m270 271h30v30h-30zm0 0" fill="#efe2dd"/><g fill="#fff5f5"><path d="m150 331h30v30h-30zm0 0"/><path d="m90 331h30v30h-30zm0 0"/><path d="m150 271h30v30h-30zm0 0"/><path d="m150 391h30v30h-30zm0 0"/></g><path d="m210 391h30v30h-30zm0 0" fill="#efe2dd"/><path d="m210 331h30v30h-30zm0 0" fill="#efe2dd"/><path d="m210 271h30v30h-30zm0 0" fill="#efe2dd"/><path d="m90 271h30v30h-30zm0 0" fill="#fff5f5"/><path d="m90 391h30v30h-30zm0 0" fill="#fff5f5"/><path d="m270 331h30v90h-30zm0 0" fill="#efe2dd"/><path d="m195 121h15v30h-15zm0 0" fill="#53433f"/></svg>