<svg height="512pt" viewBox="0 0 512 512" width="512pt" xmlns="http://www.w3.org/2000/svg"><path d="m256 0c-140.699219 0-256 115.300781-256 256s115.300781 256 256 256 256-115.300781 256-256-115.300781-256-256-256zm0 0" fill="#c6715a"/><path d="m512 256c0 140.699219-115.300781 256-256 256v-512c140.699219 0 256 115.300781 256 256zm0 0" fill="#b35f49"/><path d="m256 61c-107.402344 0-195 87.597656-195 195 0 107.398438 87.597656 195 195 195s195-87.601562 195-195c0-107.402344-87.597656-195-195-195zm0 0" fill="#fff5f5"/><path d="m451 256c0 107.398438-87.597656 195-195 195v-390c107.402344 0 195 87.597656 195 195zm0 0" fill="#efe2dd"/><g fill="#e1d3ce"><path d="m241 121h30v30h-30zm0 0"/><path d="m241 361h30v30h-30zm0 0"/><path d="m171.140625 149.929688 21.210937 21.210937-21.210937 21.210937-21.210937-21.210937zm0 0"/></g><path d="m340.859375 319.644531 21.210937 21.210938-21.210937 21.210937-21.210937-21.210937zm0 0" fill="#cdbfba"/><path d="m121 241h30v30h-30zm0 0" fill="#e1d3ce"/><path d="m361 241h30v30h-30zm0 0" fill="#cdbfba"/><path d="m171.144531 319.644531 21.207031 21.210938-21.207031 21.210937-21.210937-21.210937zm0 0" fill="#e1d3ce"/><path d="m340.855469 149.925781 21.210937 21.210938-21.210937 21.210937-21.207031-21.210937zm0 0" fill="#cdbfba"/><path d="m311.5 290.5-21 21-34.5-34.199219-15-15v-81.300781h30v68.699219zm0 0" fill="#725d57"/><path d="m256 121h15v30h-15zm0 0" fill="#cdbfba"/><path d="m256 361h15v30h-15zm0 0" fill="#cdbfba"/><path d="m311.5 290.5-21 21-34.5-34.199219v-96.300781h15v68.699219zm0 0" fill="#53433f"/></svg>