<svg height="512pt" viewBox="0 0 512 512" width="512pt" xmlns="http://www.w3.org/2000/svg"><g fill="#53433f"><path d="m31 61h451v30h-451zm0 0"/><path d="m31 181h451v30h-451zm0 0"/><path d="m31 301h451v30h-451zm0 0"/><path d="m31 421h451v30h-451zm0 0"/></g><path d="m256 61h226v30h-226zm0 0" fill="#3e322e"/><path d="m256 181h226v30h-226zm0 0" fill="#3e322e"/><path d="m256 301h226v30h-226zm0 0" fill="#3e322e"/><path d="m256 421h226v30h-226zm0 0" fill="#3e322e"/><path d="m0 0h61v512h-61zm0 0" fill="#725d57"/><path d="m451 0h61v512h-61zm0 0" fill="#53433f"/><path d="m256 42.699219c-7.800781-7.203125-18.300781-11.699219-30-11.699219-24.902344 0-45 20.097656-45 45 0 24.898438 20.097656 45 45 45 11.699219 0 22.199219-4.5 30-11.699219 9.300781-8.101562 15-20.101562 15-33.300781s-5.699219-25.199219-15-33.300781zm0 0" fill="#c6715a"/><path d="m376 121c-24.8125 0-45-20.1875-45-45s20.1875-45 45-45 45 20.1875 45 45-20.1875 45-45 45zm0 0" fill="#b35f49"/><path d="m136 361c-24.8125 0-45-20.1875-45-45s20.1875-45 45-45 45 20.1875 45 45-20.1875 45-45 45zm0 0" fill="#c6715a"/><path d="m286 271c-11.699219 0-22.199219 4.5-30 11.699219-9.300781 8.101562-15 20.101562-15 33.300781s5.699219 25.199219 15 33.300781c7.800781 7.199219 18.300781 11.699219 30 11.699219 24.902344 0 45-20.101562 45-45 0-24.902344-20.097656-45-45-45zm0 0" fill="#c6715a"/><path d="m376 361c-24.8125 0-45-20.1875-45-45s20.1875-45 45-45 45 20.1875 45 45-20.1875 45-45 45zm0 0" fill="#b35f49"/><path d="m196 241c-24.8125 0-45-20.1875-45-45s20.1875-45 45-45 45 20.1875 45 45-20.1875 45-45 45zm0 0" fill="#c6715a"/><path d="m286 151c-11.699219 0-22.199219 4.5-30 11.699219-9.300781 8.101562-15 20.101562-15 33.300781s5.699219 25.199219 15 33.300781c7.800781 7.199219 18.300781 11.699219 30 11.699219 24.902344 0 45-20.101562 45-45 0-24.902344-20.097656-45-45-45zm0 0" fill="#c6715a"/><path d="m376 241c-24.8125 0-45-20.1875-45-45s20.1875-45 45-45 45 20.1875 45 45-20.1875 45-45 45zm0 0" fill="#b35f49"/><path d="m136 481c-24.8125 0-45-20.1875-45-45s20.1875-45 45-45 45 20.1875 45 45-20.1875 45-45 45zm0 0" fill="#c6715a"/><path d="m256 402.699219c-7.800781-7.203125-18.300781-11.699219-30-11.699219-24.902344 0-45 20.097656-45 45 0 24.898438 20.097656 45 45 45 11.699219 0 22.199219-4.5 30-11.699219 9.300781-8.101562 15-20.101562 15-33.300781s-5.699219-25.199219-15-33.300781zm0 0" fill="#c6715a"/><path d="m376 481c-24.8125 0-45-20.1875-45-45s20.1875-45 45-45 45 20.1875 45 45-20.1875 45-45 45zm0 0" fill="#b35f49"/><path d="m136 121c-24.8125 0-45-20.1875-45-45s20.1875-45 45-45 45 20.1875 45 45-20.1875 45-45 45zm0 0" fill="#c6715a"/><path d="m256 402.699219c9.300781 8.101562 15 20.101562 15 33.300781s-5.699219 25.199219-15 33.300781zm0 0" fill="#b35f49"/><path d="m271 76c0 13.199219-5.699219 25.199219-15 33.300781v-66.601562c9.300781 8.101562 15 20.101562 15 33.300781zm0 0" fill="#b35f49"/><path d="m331 316c0 24.898438-20.097656 45-45 45-11.699219 0-22.199219-4.5-30-11.699219v-66.601562c7.800781-7.203125 18.300781-11.699219 30-11.699219 24.902344 0 45 20.097656 45 45zm0 0" fill="#b35f49"/><path d="m286 241c-11.699219 0-22.199219-4.5-30-11.699219v-66.601562c7.800781-7.203125 18.300781-11.699219 30-11.699219 24.902344 0 45 20.097656 45 45 0 24.898438-20.097656 45-45 45zm0 0" fill="#b35f49"/></svg>