<svg height="512pt" viewBox="0 -16 512 512" width="512pt" xmlns="http://www.w3.org/2000/svg"><path d="m512 120v360h-512v-360l30-30h452zm0 0" fill="#fff5f5"/><path d="m512 120v360h-256v-390h226zm0 0" fill="#efe2dd"/><path d="m0 30h512v90h-512zm0 0" fill="#c6715a"/><path d="m256 30h256v90h-256zm0 0" fill="#b35f49"/><path d="m61 0h30v90h-30zm0 0" fill="#725d57"/><path d="m121 0h30v90h-30zm0 0" fill="#725d57"/><path d="m181 0h30v90h-30zm0 0" fill="#725d57"/><path d="m241 0h30v90h-30zm0 0" fill="#725d57"/><g fill="#53433f"><path d="m301 0h30v90h-30zm0 0"/><path d="m421 0h30v90h-30zm0 0"/><path d="m361 0h30v90h-30zm0 0"/><path d="m362.800781 355.199219-106.800781 35.699219-106.800781-35.699219 12-80.101563h189.601562zm0 0"/><path d="m256 0h15v90h-15zm0 0"/></g><path d="m362.800781 355.199219-106.800781 35.699219v-115.800782h94.800781zm0 0" fill="#3e322e"/><path d="m256 178.800781-162.597656 76.199219 162.597656 76.199219 162.597656-76.199219zm0 0" fill="#725d57"/><path d="m418.597656 255-162.597656 76.199219v-152.398438zm0 0" fill="#53433f"/></svg>