<svg height="512pt" viewBox="-16 0 512 512" width="512pt" xmlns="http://www.w3.org/2000/svg"><path d="m480 90v270l-30 31h-420l-30-31v-270zm0 0" fill="#53433f"/><path d="m480 90v270l-30 31h-210v-301zm0 0" fill="#3e322e"/><path d="m450 120v210h-60l-30-30h-240l-30 30h-60v-210zm0 0" fill="#ffd396"/><path d="m450 120v210h-60l-30-30h-120v-180zm0 0" fill="#ffb64c"/><path d="m390 120v210h-300v-330h180zm0 0" fill="#fff5f5"/><path d="m390 120v210h-150v-330h30zm0 0" fill="#efe2dd"/><path d="m345 482-30 15h-150l-30-15c24.902344 0 45-21.101562 45-46v-45h120v45c0 24.898438 20.097656 46 45 46zm0 0" fill="#efe2dd"/><path d="m345 482-30 15h-75v-106h60v45c0 24.898438 20.097656 46 45 46zm0 0" fill="#e1d3ce"/><path d="m120 482h240v30h-240zm0 0" fill="#fff5f5"/><path d="m240 482h120v30h-120zm0 0" fill="#efe2dd"/><path d="m0 360h480v61h-480zm0 0" fill="#fff5f5"/><path d="m240 360h240v61h-240zm0 0" fill="#efe2dd"/><g fill="#e1d3ce"><path d="m150 90h90v30h-90zm0 0"/><path d="m291.210938 0h-21.210938v120h120v-21.210938zm0 0"/><path d="m150 150h180v30h-180zm0 0"/><path d="m150 210h180v30h-180zm0 0"/><path d="m150 270h180v30h-180zm0 0"/></g><path d="m240 150h90v30h-90zm0 0" fill="#cdbfba"/><path d="m240 210h90v30h-90zm0 0" fill="#cdbfba"/><path d="m240 270h90v30h-90zm0 0" fill="#cdbfba"/></svg>