<svg height="512pt" viewBox="0 -31 512 512" width="512pt" xmlns="http://www.w3.org/2000/svg"><path d="m512 30v420h-512v-420h76l30 60h300l30-60zm0 0" fill="#c6715a"/><path d="m512 30v420h-256v-360h150l30-60zm0 0" fill="#b35f49"/><path d="m341.5 0c-34.5 0-66 16.5-85.5 44.097656-19.5-27.597656-51-44.097656-85.5-44.097656h-109.5v390h109.5c62.398438 0 73.5 43.800781 85.5 60 11.398438-15.601562 23.101562-60 85.5-60h109.5v-390zm0 0" fill="#fff5f5"/><path d="m451 0v390h-109.5c-62.398438 0-74.101562 44.398438-85.5 60v-405.902344c19.5-27.597656 51-44.097656 85.5-44.097656zm0 0" fill="#efe2dd"/><path d="m121 180h90v30h-90zm0 0" fill="#e1d3ce"/><path d="m121 240h90v30h-90zm0 0" fill="#e1d3ce"/><path d="m121 300h90v30h-90zm0 0" fill="#e1d3ce"/><g fill="#cdbfba"><path d="m301 180h90v30h-90zm0 0"/><path d="m301 240h90v30h-90zm0 0"/><path d="m301 300h90v30h-90zm0 0"/><path d="m346 150c-24.8125 0-45-20.1875-45-45s20.1875-45 45-45 45 20.1875 45 45-20.1875 45-45 45zm0 0"/></g><path d="m166 150c-24.8125 0-45-20.1875-45-45s20.1875-45 45-45 45 20.1875 45 45-20.1875 45-45 45zm0 0" fill="#e1d3ce"/></svg>