<svg height="512pt" viewBox="0 -31 512 512" width="512pt" xmlns="http://www.w3.org/2000/svg"><path d="m30 0h452v375h-452zm0 0" fill="#6cb"/><path d="m256 0h226v375h-226zm0 0" fill="#48b3a1"/><path d="m422 60v30h-271v192.898438l-68.402344-45.300782 16.804688-25.199218 21.597656 14.703124v-167.101562zm0 0" fill="#fff5f5"/><path d="m391 165c0-24.8125-20.1875-45-45-45h-45v150h45c24.8125 0 45-20.1875 45-45 0-11.566406-4.507812-22.019531-11.703125-30 7.195313-7.980469 11.703125-18.433594 11.703125-30zm-60-15h15c8.277344 0 15 6.722656 15 15s-6.722656 15-15 15h-15zm15 90h-15v-30h15c8.277344 0 15 6.722656 15 15s-6.722656 15-15 15zm0 0" fill="#efe2dd"/><path d="m256 131.699219c-7.800781-7.203125-18.300781-11.699219-30-11.699219-24.902344 0-45 20.097656-45 45v105h30v-60h30v60h30v-105c0-13.199219-5.699219-25.199219-15-33.300781zm-15 48.300781h-30v-15c0-8.402344 6.597656-15 15-15s15 6.597656 15 15zm0 0" fill="#fff5f5"/><path d="m271 270h-15v-138.300781c9.300781 8.101562 15 20.101562 15 33.300781zm0 0" fill="#efe2dd"/><path d="m256 60h166v30h-166zm0 0" fill="#efe2dd"/><path d="m241 300h150v75h-150zm0 0" fill="#ffd396"/><path d="m256 300h135v75h-135zm0 0" fill="#ffb64c"/><path d="m0 360v15c0 41.398438 33.601562 75 75 75h362c41.398438 0 75-33.601562 75-75v-15zm0 0" fill="#c6715a"/><path d="m512 360v15c0 41.398438-33.601562 75-75 75h-181v-90zm0 0" fill="#99503d"/></svg>