<svg height="512pt" viewBox="0 0 512 512.00301" width="512pt" xmlns="http://www.w3.org/2000/svg"><path d="m253.363281 322.28125-84.855469 84.855469h-42.425781l-21.214843-21.214844v-42.425781l84.855468-84.855469zm0 0" fill="#ff637b"/><path d="m253.363281 322.28125-84.855469 84.855469h-42.425781l-10.605469-10.609375 106.066407-106.066406zm0 0" fill="#e63950"/><path d="m454.886719 332.890625c-76.15625 76.152344-199.617188 76.15625-275.773438 0s-76.152343-199.617187 0-275.773437c76.15625-76.15625 199.617188-76.15625 275.773438 0s76.15625 199.617187 0 275.773437zm0 0" fill="#725d57"/><path d="m454.886719 332.890625c-76.15625 76.152344-199.617188 76.15625-275.773438 0l275.773438-275.773437c76.15625 76.15625 76.15625 199.617187 0 275.773437zm0 0" fill="#53433f"/><path d="m433.671875 311.675781c-64.273437 64.273438-169.066406 64.277344-233.34375 0-64.277344-64.277343-64.273437-169.070312 0-233.347656 64.277344-64.273437 169.070313-64.273437 233.34375 0 64.277344 64.277344 64.277344 169.070313 0 233.347656zm0 0" fill="#fff5f5"/><path d="m433.671875 311.675781c-64.273437 64.273438-169.066406 64.277344-233.34375 0l233.34375-233.347656c64.277344 64.277344 64.277344 169.070313 0 233.347656zm0 0" fill="#efe2dd"/><path d="m0 448.359375 104.867188-104.867187 63.636718 63.640624-104.863281 104.863282zm0 0" fill="#725d57"/><path d="m63.640625 512.003906-31.820313-31.820312 104.867188-104.863282 31.820312 31.816407zm0 0" fill="#53433f"/><path d="m422.003906 90v150h-23.699218c-32.101563 0-51 12.898438-69.300782 25.199219l-12 7.800781-11.699218-7.800781c-12-8.097657-23.398438-15.597657-38.101563-20.398438-9-3-19.199219-4.800781-31.5-4.800781h-23.699219v-150h23.699219c2.097656 0 4.199219 0 6.300781.300781l30 59.699219h90l30-59.699219c2.101563-.300781 4.199219-.300781 6.300782-.300781zm0 0" fill="#ff637b"/><path d="m422.003906 90v150h-23.699218c-32.101563 0-51 12.898438-69.300782 25.199219l-12 7.800781-11.699218-7.800781c-12-8.097657-23.398438-15.597657-38.101563-20.398438zm0 0" fill="#e63950"/><path d="m392.003906 90.300781v119.699219c-34.5 1.5-57 15-75 27-8.101562-5.402344-16.800781-10.800781-26.699218-15.300781-13.199219-6.300781-28.800782-10.800781-48.300782-11.699219v-119.699219c34.199219 1.199219 57 14.398438 75 26.699219 18.898438-12.601562 40.800782-25.5 75-26.699219zm0 0" fill="#fde4e4"/><path d="m392.003906 120v90c-34.5 1.5-57 15-75 27-8.101562-5.402344-16.800781-10.800781-26.699218-15.300781zm0 0" fill="#fcced3"/></svg>