<svg height="512pt" viewBox="-31 0 512 512" width="512pt" xmlns="http://www.w3.org/2000/svg"><path d="m210 0v301l-30 30h-150l-30-30v-301zm0 0" fill="#725d57"/><path d="m210 0v301l-30 30h-75v-331zm0 0" fill="#53433f"/><path d="m42.425781 316-12.425781-15v-271h150v271l-12.425781 15zm0 0" fill="#fff5f5"/><path d="m105 316h62.574219l12.425781-15v-271h-75zm0 0" fill="#efe2dd"/><path d="m0 301h210v211h-210zm0 0" fill="#725d57"/><path d="m105 301h105v211h-105zm0 0" fill="#53433f"/><path d="m60 61h90v30h-90zm0 0" fill="#ff637b"/><path d="m60 121h90v30h-90zm0 0" fill="#ff637b"/><path d="m105 61h45v30h-45zm0 0" fill="#e63950"/><path d="m105 121h45v30h-45zm0 0" fill="#e63950"/><path d="m105 361c-24.902344 0-45 20.097656-45 45s20.097656 45 45 45 45-20.097656 45-45-20.097656-45-45-45zm0 0" fill="#fff5f5"/><path d="m150 406c0 24.902344-20.097656 45-45 45v-90c24.902344 0 45 20.097656 45 45zm0 0" fill="#efe2dd"/><path d="m105 421c-8.269531 0-15-6.730469-15-15s6.730469-15 15-15 15 6.730469 15 15-6.730469 15-15 15zm0 0" fill="#725d57"/><path d="m120 406c0-8.269531-6.730469-15-15-15v30c8.269531 0 15-6.730469 15-15zm0 0" fill="#53433f"/><path d="m450 0v301l-30 30h-150l-30-30v-301zm0 0" fill="#97e9d7"/><path d="m450 0v301l-30 30h-75v-331zm0 0" fill="#6cb"/><path d="m282.425781 316-12.425781-15v-271h150v271l-12.425781 15zm0 0" fill="#fff5f5"/><path d="m345 316h62.574219l12.425781-15v-271h-75zm0 0" fill="#efe2dd"/><path d="m240 301h210v211h-210zm0 0" fill="#97e9d7"/><path d="m345 301h105v211h-105zm0 0" fill="#6cb"/><path d="m300 61h90v30h-90zm0 0" fill="#ff637b"/><path d="m300 121h90v30h-90zm0 0" fill="#ff637b"/><path d="m345 61h45v30h-45zm0 0" fill="#e63950"/><path d="m345 121h45v30h-45zm0 0" fill="#e63950"/><path d="m345 361c-24.902344 0-45 20.097656-45 45s20.097656 45 45 45 45-20.097656 45-45-20.097656-45-45-45zm0 0" fill="#fff5f5"/><path d="m390 406c0 24.902344-20.097656 45-45 45v-90c24.902344 0 45 20.097656 45 45zm0 0" fill="#efe2dd"/><path d="m345 421c-8.269531 0-15-6.730469-15-15s6.730469-15 15-15 15 6.730469 15 15-6.730469 15-15 15zm0 0" fill="#725d57"/><path d="m360 406c0-8.269531-6.730469-15-15-15v30c8.269531 0 15-6.730469 15-15zm0 0" fill="#53433f"/></svg>