<svg height="512pt" viewBox="-16 0 512 512" width="512pt" xmlns="http://www.w3.org/2000/svg"><path d="m480 90v271l-30 31h-420l-30-31v-271zm0 0" fill="#53433f"/><path d="m480 90v271l-30 31h-210v-302zm0 0" fill="#3e322e"/><path d="m450 120v211h-60l-30-31h-240l-30 31h-60v-211zm0 0" fill="#ffd396"/><path d="m450 120v211h-60l-30-31h-120v-180zm0 0" fill="#ffb64c"/><path d="m390 120v211h-300v-331h180zm0 0" fill="#fff5f5"/><path d="m390 120v211h-150v-331h30zm0 0" fill="#efe2dd"/><path d="m345 482-30 15h-150l-30-15c24.902344 0 45-20.101562 45-45v-45h120v45c0 24.898438 20.097656 45 45 45zm0 0" fill="#efe2dd"/><path d="m345 482-30 15h-75v-105h60v45c0 24.898438 20.097656 45 45 45zm0 0" fill="#e1d3ce"/><path d="m120 482h240v30h-240zm0 0" fill="#fff5f5"/><path d="m240 482h120v30h-120zm0 0" fill="#efe2dd"/><path d="m0 361h480v61h-480zm0 0" fill="#fff5f5"/><path d="m240 361h240v61h-240zm0 0" fill="#efe2dd"/><path d="m291.210938 0h-21.210938v120h120v-21.210938zm0 0" fill="#e1d3ce"/><path d="m240 147-60-39.898438v175.796876l60-39.898438 72-48zm0 0" fill="#ff637b"/><path d="m312 195-72 48v-96zm0 0" fill="#e63950"/></svg>