<svg height="512pt" viewBox="-76 0 512 512" width="512pt" xmlns="http://www.w3.org/2000/svg"><path d="m328.5 382.597656-34.199219 69.402344h-159.300781c-74.398438 0-135-61.601562-135-136 0-54.601562 32.699219-103.5 83.101562-124.5l43.796876 80.101562c-21.296876 3.898438-36.898438 22.5-36.898438 44.398438 0 24.902344 20.097656 45 45 45h45zm0 0" fill="#ffb64c"/><path d="m328.5 382.597656-34.199219 69.402344h-114.300781v-91zm0 0" fill="#ff9c5e"/><path d="m166.199219 0-40.800781 19.199219-.054688.027343-40.742188 18.875 37.796876 81.597657 40.800781-19.199219.035156-.015625 40.765625-18.886719zm0 0" fill="#725d57"/><path d="m166.199219 0-40.800781 19.199219-.054688.027343 37.890625 81.257813 40.765625-18.886719zm0 0" fill="#53433f"/><path d="m267.597656 217.5-40.796875 19.199219-.035156.019531-40.765625 18.882812 37.800781 81.597657 40.800781-19.199219.054688-.027344 40.742188-18.875zm0 0" fill="#725d57"/><path d="m267.597656 217.5-40.796875 19.199219-.035156.019531 37.890625 81.253906 40.742188-18.875zm0 0" fill="#53433f"/><path d="m218.699219 41.699219-68.097657 31.5-.074218.035156-68.027344 31.765625 88.800781 190.5 68.097657-31.5.074218-.03125 68.027344-31.769531zm0 0" fill="#fff5f5"/><path d="m218.699219 41.699219-68.097657 31.5-.074218.035156 88.945312 190.734375 68.027344-31.769531zm0 0" fill="#e1d3ce"/><path d="m180 361h180v30h-180zm0 0" fill="#53433f"/><path d="m180 361c-33 0-60 27-60 60v76h120v-76c0-33-27-60-60-60zm0 0" fill="#fff5f5"/><path d="m240 421v76h-60v-136c33 0 60 27 60 60zm0 0" fill="#e1d3ce"/><path d="m90.761719 255.238281c-23.40625-23.378906-23.503907-61.339843 0-84.84375 22.632812-22.660156 62.152343-22.691406 84.84375 0 23.484375 23.484375 23.429687 61.445313 0 84.84375-23.484375 23.484375-61.445313 23.429688-84.84375 0zm0 0" fill="#725d57"/><path d="m60 482h240v30h-240zm0 0" fill="#725d57"/><path d="m180 482h120v30h-120zm0 0" fill="#53433f"/></svg>