<svg height="512pt" viewBox="0 0 512 511" width="512pt" xmlns="http://www.w3.org/2000/svg"><path d="m512 30.5v392h-512v-392h76l30 62h300l30-62zm0 0" fill="#c6715a"/><path d="m512 30.5v392h-256v-330h150l30-62zm0 0" fill="#b35f49"/><path d="m451 .5v362h-109.5c-62.398438 0-74.101562 44.398438-85.5 60-12-16.199219-23.101562-60-85.5-60h-109.5v-362h109.5c34.5 0 66 16.5 85.5 44.097656 11.398438-16.199218 27.300781-27.898437 45-35.398437l45 27.601562 45-36.300781zm0 0" fill="#fff5f5"/><path d="m451 .5v362h-109.5c-62.398438 0-74.101562 44.398438-85.5 60v-377.902344c11.398438-16.199218 27.300781-27.898437 45-35.398437l45 27.601562 45-36.300781zm0 0" fill="#efe2dd"/><path d="m121 62.5h90v30h-90zm0 0" fill="#e1d3ce"/><path d="m121 122.5h90v30h-90zm0 0" fill="#e1d3ce"/><path d="m301 182.5h90v30h-90zm0 0" fill="#cdbfba"/><path d="m121 182.5h90v30h-90zm0 0" fill="#e1d3ce"/><path d="m121 242.5h90v30h-90zm0 0" fill="#e1d3ce"/><path d="m425.632812 404.917969 86.367188 86.363281-21.210938 21.210938-86.367187-86.363282zm0 0" fill="#53433f"/><path d="m346 98.710938 45 45v-143.210938h-49.5c-14.324219 0-27.855469 3.449219-40.5 8.75v134.460938zm0 0" fill="#e63950"/><path d="m346 452.5c-57.890625 0-105-47.109375-105-105s47.109375-105 105-105 105 47.109375 105 105-47.109375 105-105 105zm0 0" fill="#53433f"/><path d="m346 272.5c-41.351562 0-75 33.648438-75 75s33.648438 75 75 75 75-33.648438 75-75-33.648438-75-75-75zm0 0" fill="#efe2dd"/></svg>