<svg height="512pt" viewBox="0 0 512 512" width="512pt" xmlns="http://www.w3.org/2000/svg"><path d="m0 0h512v391h-512zm0 0" fill="#efe2dd"/><path d="m256 0h256v391h-256zm0 0" fill="#e1d3ce"/><path d="m451 91v210h-15c-8.402344 0-15 6.597656-15 15v15h-330v-15c0-8.402344-6.597656-15-15-15h-15v-210h15c8.402344 0 15-6.597656 15-15v-15h330v15c0 8.402344 6.597656 15 15 15zm0 0" fill="#fff5f5"/><path d="m451 91v210h-15c-8.402344 0-15 6.597656-15 15v15h-165v-270h165v15c0 8.402344 6.597656 15 15 15zm0 0" fill="#efe2dd"/><path d="m151 121h210v30h-210zm0 0" fill="#e1d3ce"/><path d="m121 181h270v30h-270zm0 0" fill="#e1d3ce"/><path d="m256 121h105v30h-105zm0 0" fill="#cdbfba"/><path d="m256 181h135v30h-135zm0 0" fill="#cdbfba"/><path d="m316 355.601562v156.398438l-60-51.898438-60 51.898438v-156.398438zm0 0" fill="#ff637b"/><path d="m256 355.601562h60v156.398438l-60-51.898438zm0 0" fill="#e63950"/><path d="m256 241c-41.398438 0-75 33.601562-75 75s33.601562 75 75 75 75-33.601562 75-75-33.601562-75-75-75zm0 0" fill="#ffd396"/><path d="m331 316c0 41.398438-33.601562 75-75 75v-150c41.398438 0 75 33.601562 75 75zm0 0" fill="#ffb64c"/><path d="m256 271c-24.902344 0-45 20.097656-45 45s20.097656 45 45 45 45-20.097656 45-45-20.097656-45-45-45zm0 0" fill="#ffb64c"/><path d="m301 316c0 24.902344-20.097656 45-45 45v-90c24.902344 0 45 20.097656 45 45zm0 0" fill="#ff9c5e"/><path d="m234.695312 316 21.300782-21.300781 21.300781 21.300781-21.300781 21.300781zm0 0" fill="#ffd396"/><path d="m277.300781 316-21.300781 21.300781v-42.601562zm0 0" fill="#ffb64c"/></svg>