<svg height="512pt" viewBox="0 -16 512 512" width="512pt" xmlns="http://www.w3.org/2000/svg"><path d="m280.78125 371.777344-38.429688 4.03125-106.160156-106.160156 4.03125-38.429688 231.855469-192.789062 40.128906-2.335938 63.699219 63.699219-2.335938 40.128906zm0 0" fill="#ffb64c"/><path d="m136.191406 439.507812-40.648437 40.644532-95.542969-31.847656 72.492188-72.496094 41.191406-1.273438 21.230468 21.234375zm0 0" fill="#ffd396"/><path d="m134.914062 395.769531 1.277344 43.738281-40.648437 40.644532-47.769531-15.925782 77.800781-77.800781zm0 0" fill="#ffb64c"/><path d="m280.78125 371.777344-38.429688 4.03125-53.082031-53.078125 254.785157-254.789063 31.851562 31.851563-2.335938 40.128906zm0 0" fill="#ff9c5e"/><path d="m242.347656 248.417969 127.390625-127.394531 21.234375 21.234374-127.394531 127.390626zm0 0" fill="#ffd396"/><path d="m380.359375 131.636719 10.613281 10.617187-127.390625 127.390625-10.617187-10.617187zm0 0" fill="#ffb64c"/><path d="m242.351562 418.273438-11.890624-11.890626c-17.410157-17.410156-45.222657-15.921874-62.636719 1.488282l-31.632813 31.636718-63.699218-63.699218 31.636718-31.632813c17.410156-17.414062 16.5625-47.5625-1.0625-65.183593l-9.339844-9.34375 46.496094-38.429688 140.558594 140.554688zm0 0" fill="#725d57"/><path d="m242.351562 418.273438-11.890624-11.890626c-17.410157-17.410156-45.222657-15.921874-62.636719 1.488282l-31.632813 31.636718-31.847656-31.851562 106.160156-106.160156 70.277344 70.28125zm0 0" fill="#53433f"/><path d="m473.570312 139.921875-101.492187-101.492187 46.5-38.429688 93.421875 93.421875zm0 0" fill="#725d57"/><path d="m473.570312 139.921875-50.746093-50.746094 42.464843-42.464843 46.710938 46.710937zm0 0" fill="#53433f"/></svg>