<svg height="512pt" viewBox="-61 0 512 512" width="512pt" xmlns="http://www.w3.org/2000/svg"><path d="m389.699219 143.699219c1.800781 33.300781-9.902344 65.800781-32.699219 89.800781-22.800781 24.300781-53.699219 37.5-87 37.5h-150c-16.5 0-30 13.5-30 30s13.5 30 30 30h75c24.898438 0 45 20.097656 45 45s-20.101562 45-45 45h-30v-30h30c8.398438 0 15-6.597656 15-15s-6.601562-15-15-15h-75c-33 0-60-27-60-60s27-60 60-60h150c24.898438 0 47.996094-9.902344 65.398438-28.199219 17.101562-18 25.800781-42.699219 24.601562-67.601562-2.703125-47.097657-45.601562-85.199219-96-85.199219h-9v-30h9c66 0 122.699219 51 125.699219 113.699219zm0 0" fill="#97e9d7"/><path d="m240 376c0 24.902344-20.097656 45-45 45h-30v-30h30c8.402344 0 15-6.597656 15-15s-6.597656-15-15-15h-30v-30h30c24.898438 0 45 20.097656 45 45zm0 0" fill="#6cb"/><path d="m389.699219 143.699219c1.800781 33.300781-9.902344 65.800781-32.699219 89.800781-22.800781 24.300781-53.699219 37.5-87 37.5h-105v-30h105c24.898438 0 47.996094-9.902344 65.398438-28.199219 17.101562-18 25.800781-42.699219 24.601562-67.601562-2.703125-47.097657-45.601562-85.199219-96-85.199219h-9v-30h9c66 0 122.699219 51 125.699219 113.699219zm0 0" fill="#6cb"/><path d="m261.898438 30.902344c-19.796876-20.101563-46.199219-30.902344-74.097657-30.902344h-22.800781c-24.902344 0-45 20.097656-45 45s20.097656 45 45 45h22.800781c27.898438 0 54.300781-10.800781 74.097657-30.902344l14.402343-14.097656zm0 0" fill="#97e9d7"/><path d="m187.800781 90h-22.800781v-90h22.800781c27.898438 0 54.300781 10.800781 74.097657 30.902344l14.402343 14.097656-14.402343 14.097656c-19.796876 20.101563-46.199219 30.902344-74.097657 30.902344zm0 0" fill="#6cb"/><path d="m150 241h30v211h-30zm0 0" fill="#efe2dd"/><path d="m165 241h15v211h-15zm0 0" fill="#e1d3ce"/><path d="m0 120v15c0 74.398438 60.601562 136 135 136h60c74.398438 0 135-61.601562 135-136v-15zm0 0" fill="#fff5f5"/><path d="m330 120v15c0 74.398438-60.601562 136-135 136h-30v-151zm0 0" fill="#efe2dd"/><path d="m276.300781 497h-222.601562l111.300781-112.300781zm0 0" fill="#efe2dd"/><path d="m165 384.699219 111.300781 112.300781h-111.300781zm0 0" fill="#e1d3ce"/><path d="m30 482h270v30h-270zm0 0" fill="#fff5f5"/><path d="m165 482h135v30h-135zm0 0" fill="#efe2dd"/></svg>