<svg height="512pt" viewBox="0 0 512 512.00351" width="512pt" xmlns="http://www.w3.org/2000/svg"><path d="m0 490.789062 42.417969-42.417968 21.207031 21.210937-42.414062 42.414063zm0 0" fill="#fff5f5"/><path d="m21.210938 512.003906-10.605469-10.605468 42.417969-42.414063 10.601562 10.601563zm0 0" fill="#e1d3ce"/><path d="m458.984375 116.644531-21.207031 21.210938 31.808594 31.8125-116.644532 116.644531 21.207032 21.207031 137.855468-137.851562zm0 0" fill="#e1d3ce"/><path d="m512.003906 84.832031-42.417968 42.417969-31.808594 10.605469-63.628906-63.625 10.605468-31.8125 42.417969-42.417969zm0 0" fill="#fff5f5"/><path d="m512.003906 84.832031-42.417968 42.417969-31.808594 10.605469-31.8125-31.8125 63.621094-63.625zm0 0" fill="#e1d3ce"/><path d="m469.585938 127.25-116.644532 116.644531-31.8125 10.605469-63.625-63.625 10.605469-31.8125 116.644531-116.644531zm0 0" fill="#ffb64c"/><path d="m469.585938 127.25-116.644532 116.644531-31.8125 10.605469-31.8125-31.8125 137.855469-137.855469zm0 0" fill="#ff9c5e"/><path d="m352.941406 243.894531-63.625 63.625-31.8125 10.605469-63.625-63.625 10.605469-31.8125 63.625-63.625zm0 0" fill="#fff5f5"/><path d="m310.523438 201.480469 42.417968 42.414062-63.625 63.625-31.8125 10.605469-31.8125-31.8125zm0 0" fill="#e1d3ce"/><path d="m289.316406 307.519531-127.25 127.253907-53.019531-10.605469-21.210937-21.210938-10.601563-53.019531 127.25-127.25zm0 0" fill="#ffb64c"/><path d="m246.902344 265.105469 42.414062 42.414062-127.25 127.253907-53.019531-10.605469-10.605469-10.605469zm0 0" fill="#ff9c5e"/><path d="m162.066406 434.773438-132.792968 47.960937 47.960937-132.796875zm0 0" fill="#fff5f5"/><path d="m119.652344 392.355469 42.414062 42.417969-132.792968 47.960937zm0 0" fill="#e1d3ce"/></svg>