<svg height="512pt" viewBox="0 0 512 512" width="512pt" xmlns="http://www.w3.org/2000/svg"><path d="m271 75v10.5h-30v-10.5c0-24.902344-20.097656-45-45-45h-15v-30h15c24.601562 0 46.5 12 60 30.300781 9.601562 12.296875 15 27.898438 15 44.699219zm0 0" fill="#725d57"/><path d="m271 75v10.5h-15v-55.199219c9.601562 12.296875 15 27.898438 15 44.699219zm0 0" fill="#53433f"/><path d="m301 60c-14.097656 0-27.300781 3-39.902344 9.300781-1.5.898438-3.296875 1.199219-5.097656 1.199219s-3.601562-.300781-5.097656-1.199219c-12.601563-6.300781-25.804688-9.300781-39.902344-9.300781-49.5 0-90 40.5-90 90 0 67.800781 46.800781 152 105 152 10.199219 0 20.097656-2.402344 30-7.5 9.902344 5.097656 19.800781 7.5 30 7.5 58.199219 0 105-84.199219 105-152 0-49.5-40.5-90-90-90zm0 0" fill="#ff637b"/><path d="m391 150c0 67.800781-46.800781 152-105 152-10.199219 0-20.097656-2.402344-30-7.5v-224c1.800781 0 3.601562-.300781 5.097656-1.199219 12.601563-6.300781 25.804688-9.300781 39.902344-9.300781 49.5 0 90 40.5 90 90zm0 0" fill="#e63950"/><path d="m512 332-45 15h-347c-16.5 0-45-28.5-45-45s28.5-45 45-45h347l45 15c-16.5 0-30 13.5-30 30s13.5 30 30 30zm0 0" fill="#fff5f5"/><path d="m512 332-45 15h-211v-90h211l45 15c-16.5 0-30 13.5-30 30s13.5 30 30 30zm0 0" fill="#efe2dd"/><path d="m90 302c0 16.5 13.5 30 30 30h392v30h-392c-33 0-60-27-60-60s27-60 60-60h392v30h-392c-16.5 0-30 13.5-30 30zm0 0" fill="#b35f49"/><path d="m256 242h256v30h-256zm0 0" fill="#99503d"/><path d="m256 332h256v30h-256zm0 0" fill="#99503d"/><path d="m467 437c0 24.898438-35.097656 60-60 60h-371.300781l-35.699219-15c19.5 0 36-12.601562 42.300781-30l17.699219-15-17.699219-15c-6.300781-17.402344-22.800781-30-42.300781-30l27.300781-15h379.699219c24.902344 0 60 35.097656 60 60zm0 0" fill="#fff5f5"/><path d="m467 437c0 24.898438-35.097656 60-60 60h-151v-120h151c24.902344 0 60 35.097656 60 60zm0 0" fill="#efe2dd"/><path d="m407 362h-407v30h407c24.902344 0 45 20.097656 45 45 0 24.898438-20.097656 45-45 45h-407v30h407c41.398438 0 75-33.601562 75-75s-33.601562-75-75-75zm0 0" fill="#ffb64c"/><path d="m422 422v30h-379.699219c1.5-4.800781 2.699219-9.601562 2.699219-15s-1.199219-10.199219-2.699219-15zm0 0" fill="#efe2dd"/><path d="m482 437c0 41.398438-33.601562 75-75 75h-151v-30h151c24.902344 0 45-20.101562 45-45 0-24.902344-20.097656-45-45-45h-151v-30h151c41.398438 0 75 33.601562 75 75zm0 0" fill="#ff9c5e"/><path d="m256 422h166v30h-166zm0 0" fill="#e1d3ce"/></svg>