<svg height="512pt" viewBox="0 0 512 512.00042" width="512pt" xmlns="http://www.w3.org/2000/svg"><path d="m480.664062 256.027344c0 5.097656-.296874 9.898437-.898437 15l-209.105469 209.105468c-5.101562.601563-9.902344.898438-15 .898438-45.902344 0-88.503906-13.800781-124.207031-37.5l-94.800781-238.808594c11.101562-48.902344 40.800781-95.703125 82.203125-126.601562 3.898437-3.003906-6.898438-21.003906-2.703125-24.003906 4.800781-3 24.601562 9 29.402344 6.601562 4.5-3 9-5.398438 13.800781-7.800781l96.304687 27.300781 188.40625 53.402344c23.097656 35.101562 36.597656 77.101562 36.597656 122.40625zm0 0" fill="#97e9d7"/><path d="m480.664062 256.027344c0 5.097656-.296874 9.898437-.898437 15l-209.105469 209.105468c-5.101562.601563-9.902344.898438-15 .898438v-400.8125l188.40625 53.402344c23.097656 35.101562 36.597656 77.101562 36.597656 122.40625zm0 0" fill="#73e6d3"/><path d="m444.066406 133.621094-67.203125 84.902344-37.503906-37.5h-68.699219v-30h-86.703125l-24.601562-98.105469c29.402343-13.800781 61.800781-21.898438 96.304687-21.898438 78.902344 0 148.203125 40.800781 188.40625 102.601563zm0 0" fill="#6cb"/><path d="m120.652344 309.816406v-63.0625l-83.894532-41.945312c-3.859374 16.480468-6.105468 33.574218-6.105468 51.21875 0 78.183594 40.121094 147.113281 100.8125 187.453125l20.480468-102.386719zm0 0" fill="#6cb"/><path d="m479.765625 271.027344c-2.097656 34.5-12.300781 66.898437-28.5 95.402344-2.238281 4.078124 10.410156 23.042968 7.890625 26.917968-3.222656 4.957032-21.71875-5.234375-25.59375-.519531-37.699219 50.261719-98.160156 83.363281-162.902344 87.304687v-200.40625l38.699219-38.703124h81.304687v30.003906zm0 0" fill="#48b3a1"/><path d="m270.660156 151.023438h-15v-120.003907c78.902344 0 148.203125 40.800781 188.40625 102.601563l-67.203125 84.902344-37.503906-37.5h-68.699219zm0 0" fill="#48b3a1"/><path d="m504.765625 504.433594c-40.5 40.5-191.503906-93.003906-234.105469-130.804688-5.097656-4.800781-10.203125-9.300781-15-13.5-23.699218-21.902344-40.800781-39.003906-46.800781-45.003906l21-21.296875c8.699219 8.699219 17.398437 17.097656 25.800781 25.199219 5.097656 4.800781 10.199219 9.597656 15 14.101562 25.5 24 180.40625 161.105469 214.007813 149.402344 0-3.296875-10.601563-32.402344-51.101563-89.703125 6.898438-8.398437 12.597656-17.097656 17.699219-26.398437 69.003906 93.902343 66.101563 125.703124 53.5 138.003906zm0 0" fill="#ffd396"/><path d="m27.652344 29.019531c5.101562-1.800781 34.199218 8.597657 91.203125 49.101563 8.398437-6.601563 17.398437-12.601563 26.699219-17.402344-94.203126-69.304688-125.703126-66.203125-138.003907-53.601562-43.90625 43.90625 116.152344 219.679687 159.304688 265.109374l21.902343-20.703124c-24.058593-25.351563-169.585937-188.585938-161.105468-222.503907zm0 0" fill="#ffd396"/><path d="m504.765625 504.433594c-40.5 40.5-191.503906-93.003906-234.105469-130.804688-5.097656-4.800781-10.203125-9.300781-15-13.5v-41.101562c5.097656 4.800781 10.199219 9.597656 15 14.101562 25.5 24 180.40625 161.105469 214.007813 149.402344 0-3.296875-10.601563-32.402344-51.101563-89.703125 6.898438-8.398437 12.597656-17.097656 17.699219-26.398437 69.003906 93.902343 66.101563 125.703124 53.5 138.003906zm0 0" fill="#ffb64c"/><path d="m195.65625 331.027344c-24.816406 0-45-20.1875-45-45 0-24.816406 20.183594-45.003906 45-45.003906s45 20.1875 45 45.003906c0 24.8125-20.183594 45-45 45zm0 0" fill="#725d57"/></svg>