<svg height="512pt" viewBox="0 0 512 512" width="512pt" xmlns="http://www.w3.org/2000/svg"><path d="m434.5 308.5-90.300781 180.398438c-22.199219 12.300781-46.800781 20.097656-73.199219 22.199218l-15-14.398437-88.800781-85.898438-78.300781-146.402343c26.402343-66.296876 91.199218-113.398438 167.101562-113.398438 91.800781 0 167.402344 68.699219 178.5 157.5zm0 0" fill="#97e9d7"/><path d="m434.5 308.5-90.300781 180.398438c-22.199219 12.300781-46.800781 20.097656-73.199219 22.199218l-15-14.398437v-345.699219c91.800781 0 167.402344 68.699219 178.5 157.5zm0 0" fill="#73e6d3"/><path d="m436 331c0-7.660156-.636719-15.160156-1.566406-22.570312l-103.433594 25.851562v35.507812l-33.589844 33.574219 46.644532 85.542969c54.839843-30.847656 91.945312-90.503906 91.945312-157.90625zm0 0" fill="#48b3a1"/><path d="m271 432.398438v78.699218c-5.097656.601563-9.902344.902344-15 .902344-99.300781 0-180-81.699219-180-181 0-23.402344 4.800781-45.902344 12.898438-66.601562l84 96.601562h62.402343zm0 0" fill="#6cb"/><path d="m256 402.398438 15 30v78.699218c-5.097656.601563-9.902344.902344-15 .902344zm0 0" fill="#48b3a1"/><path d="m424.300781 233.5-168.300781 84.300781-168.300781-84.300781 30.601562-93.300781h275.398438zm0 0" fill="#53433f"/><path d="m481 313.574219v-207.574219h-30v207.574219l-29.222656 87.679687 28.445312 9.492188 15.777344-47.3125 15.777344 47.3125 29.445312-9.492188zm0 0" fill="#ffb64c"/><path d="m424.300781 233.5-168.300781 84.300781v-177.601562h137.699219zm0 0" fill="#3e322e"/><path d="m512 106-256 105-256-105 256-106zm0 0" fill="#725d57"/><path d="m512 106-256 105v-211zm0 0" fill="#53433f"/><path d="m234.695312 105.988281 21.296876-21.296875 21.300781 21.296875-21.300781 21.300781zm0 0" fill="#ffd396"/><path d="m277.300781 106-21.300781 21.300781v-42.601562zm0 0" fill="#ffb64c"/></svg>