<svg height="512pt" viewBox="0 0 512 512" width="512pt" xmlns="http://www.w3.org/2000/svg"><path d="m496.300781 29.097656c-48.300781-19.496094-100.300781-29.097656-151.300781-29.097656s-102 9.601562-150.300781 29.097656l-14.699219 5.703125v159.699219c0 91.199219 73.800781 165 165 165 90.902344 0 165.699219-73.5 166-164.703125v-160zm0 0" fill="#ff637b"/><path d="m511 34.800781v160c-.300781 91.199219-75.097656 164.699219-166 164.699219v-359.5c51 0 103 9.601562 151.300781 29.097656zm0 0" fill="#e63950"/><path d="m285 121c-24.8125 0-45-20.1875-45-45h30c0 8.277344 6.722656 15 15 15s15-6.722656 15-15h30c0 24.8125-20.1875 45-45 45zm0 0" fill="#725d57"/><path d="m405 121c-24.8125 0-45-20.1875-45-45h30c0 8.277344 6.722656 15 15 15s15-6.722656 15-15h30c0 24.8125-20.1875 45-45 45zm0 0" fill="#53433f"/><path d="m433.199219 238c-8.398438-41.699219-45.597657-72-88.199219-72s-79.800781 30.300781-88.199219 72l-3.601562 18h183.601562zm0 0" fill="#fff5f5"/><path d="m436.800781 256h-91.800781v-90c42.597656 0 79.800781 30.300781 88.199219 72zm0 0" fill="#efe2dd"/><path d="m315.300781 180.097656c-48.300781-19.496094-99.300781-29.097656-150.300781-29.097656s-102 9.601562-150.300781 29.097656l-14.699219 5.703125v158.699219c0 91.199219 73.800781 167.5 165 167.5 90.902344 0 164.699219-76 165-167.199219v-159zm0 0" fill="#ffd396"/><path d="m330 185.800781v159c-.300781 91.199219-74.097656 167.199219-165 167.199219v-361c51 0 102 9.601562 150.300781 29.097656zm0 0" fill="#ffb64c"/><path d="m73.199219 346 3.601562 18c8.398438 41.699219 45.601563 72 88.199219 72s79.800781-30.300781 88.199219-72l3.601562-18zm0 0" fill="#fff5f5"/><path d="m150 286h-30c0-8.277344-6.722656-15-15-15s-15 6.722656-15 15h-30c0-24.8125 20.1875-45 45-45s45 20.1875 45 45zm0 0" fill="#725d57"/><path d="m270 286h-30c0-8.277344-6.722656-15-15-15s-15 6.722656-15 15h-30c0-24.8125 20.1875-45 45-45s45 20.1875 45 45zm0 0" fill="#53433f"/><path d="m256.800781 346-3.601562 18c-8.398438 41.699219-45.597657 72-88.199219 72v-90zm0 0" fill="#efe2dd"/></svg>