<svg height="512pt" viewBox="-31 0 512 512" width="512pt" xmlns="http://www.w3.org/2000/svg"><path d="m149.933594 433.167969v63.832031h90v-63.875zm0 0" fill="#b35f49"/><path d="m89.84375 482h210v30h-210zm0 0" fill="#725d57"/><path d="m375.316406 375.316406c-99.492187 99.488282-261.136718 99.488282-360.625 0-3.605468-3.605468-6.574218-7.425781-9.96875-11.246094l52.394532-52.394531 21.214843 21.210938-31.183593 31.183593c88.035156 77.429688 222.738281 74.246094 306.953124-9.96875 84.21875-84.21875 87.398438-218.921874 9.972657-306.957031l-31.1875 31.183594-21.210938-21.210937 52.398438-52.398438c3.816406 3.394531 7.632812 6.367188 11.242187 9.972656 99.488282 99.488282 99.488282 261.132813 0 360.625zm0 0" fill="#c6715a"/><path d="m375.316406 375.316406c-99.492187 99.488282-261.136718 99.488282-360.625 0l53.035156-53.035156 10.605469 10.609375-31.183593 31.179687c88.035156 77.429688 222.738281 74.246094 306.953124-9.96875 84.21875-84.214843 87.402344-218.917968 9.972657-306.957031l-31.1875 31.183594-10.605469-10.605469 53.035156-53.03125c99.488282 99.488282 99.488282 261.132813 0 360.625zm0 0" fill="#b35f49"/><path d="m332.886719 332.890625c-76.152344 76.152344-199.613281 76.15625-275.769531 0s-76.15625-199.617187 0-275.773437 199.617187-76.15625 275.769531 0c76.15625 76.15625 76.15625 199.617187 0 275.773437zm0 0" fill="#ffd396"/><path d="m332.886719 332.890625c-76.152344 76.152344-199.613281 76.15625-275.769531 0l275.769531-275.773437c76.15625 76.15625 76.15625 199.617187 0 275.773437zm0 0" fill="#ffb64c"/><path d="m311.675781 311.675781c-64.273437 64.273438-169.070312 64.277344-233.34375 0-64.277343-64.277343-64.277343-169.070312 0-233.347656 64.277344-64.273437 169.066407-64.273437 233.34375 0 64.277344 64.277344 64.277344 169.070313 0 233.347656zm0 0" fill="#ffb64c"/><path d="m311.675781 311.675781c-64.273437 64.273438-169.070312 64.277344-233.34375 0l233.34375-233.347656c64.277344 64.277344 64.277344 169.070313 0 233.347656zm0 0" fill="#ff9c5e"/><g fill="#ffd396"><path d="m332.886719 57.117188c-40.9375-40.941407-135.972657-12.515626-212.128907 63.640624-76.15625 76.152344-104.582031 171.1875-63.640624 212.132813 40.941406 40.941406 135.976562 12.511719 212.132812-63.640625 76.15625-76.15625 104.578125-171.191406 63.636719-212.132812zm-254.554688 254.558593c-25.03125-25.03125-3.183593-102.886719 63.636719-169.707031 66.824219-66.820312 144.675781-88.671875 169.707031-63.640625s3.183594 102.886719-63.640625 169.707031c-66.820312 66.820313-144.671875 88.671875-169.703125 63.640625zm0 0"/><path d="m141.96875 35.90625 21.210938-21.214844 212.132812 212.132813-21.214844 21.210937zm0 0"/><path d="m57.117188 78.332031 21.210937-21.214843 254.554687 254.558593-21.210937 21.210938zm0 0"/><path d="m14.6875 163.183594 21.214844-21.214844 212.128906 212.132812-21.210938 21.210938zm0 0"/><path d="m57.117188 311.675781 254.554687-254.558593 21.210937 21.214843-254.554687 254.554688zm0 0"/></g><path d="m67.722656 322.28125 254.554688-254.554688 10.605468 10.605469-254.554687 254.554688zm0 0" fill="#ffb64c"/><path d="m269.25 269.25c-76.15625 76.152344-171.191406 104.578125-212.132812 63.640625l21.214843-21.214844c25.03125 25.03125 102.882813 3.179688 169.703125-63.640625 66.824219-66.820312 88.671875-144.671875 63.640625-169.707031l21.214844-21.210937c40.9375 40.941406 12.515625 135.976562-63.640625 212.132812zm0 0" fill="#ffb64c"/><path d="m269.25 120.753906 106.0625 106.066406-21.210938 21.210938-106.066406-106.066406zm0 0" fill="#ffb64c"/><path d="m226.820312 375.316406-106.0625-106.0625 21.210938-21.214844 106.066406 106.066407zm0 0" fill="#ffb64c"/><path d="m184.394531 205.609375 21.210938-21.210937 127.277343 127.277343-21.210937 21.210938zm0 0" fill="#ffb64c"/></svg>