<svg height="512pt" viewBox="0 0 512 512" width="512pt" xmlns="http://www.w3.org/2000/svg"><path d="m390.097656 101.199219-28.195312 9.601562-26.703125-80.800781h-158.398438l-26.703125 80.800781-28.195312-9.601562 33.296875-101.199219h201.601562zm0 0" fill="#725d57"/><path d="m390.097656 101.199219-28.195312 9.601562-26.703125-80.800781h-79.199219v-30h100.800781zm0 0" fill="#53433f"/><path d="m507.5 224.800781-11.101562 287.199219h-480.796876l-11.101562-287.199219zm0 0" fill="#725d57"/><path d="m507.5 224.800781-11.101562 287.199219h-240.398438v-287.199219zm0 0" fill="#53433f"/><path d="m512 91v105c0 57.898438-48.101562 105-106 105h-300c-57.898438 0-106-47.101562-106-105v-105h91l30 30h30l30-30h150l30 30h30l30-30zm0 0" fill="#c6715a"/><path d="m512 91v105c0 57.898438-48.101562 105-106 105h-150v-210h75l30 30h30l30-30zm0 0" fill="#b35f49"/><path d="m331 91v120l30 30h30l30-30v-120zm0 0" fill="#ffb64c"/><path d="m361.761719 382.972656 14.238281 14.238282 14.238281-14.238282c19.832031-19.832031 30.761719-46.203125 30.761719-74.253906v-97.71875h-90v97.71875c0 28.050781 10.929688 54.421875 30.761719 74.253906zm0 0" fill="#ff9c5e"/><path d="m91 91v120l30 30h30l30-30v-120zm0 0" fill="#ffd396"/><path d="m121.761719 382.972656 14.238281 14.238282 14.238281-14.238282c19.832031-19.832031 30.761719-46.203125 30.761719-74.253906v-97.71875h-90v97.71875c0 28.050781 10.929688 54.421875 30.761719 74.253906zm0 0" fill="#ffb64c"/><path d="m211 211h90v30h-90zm0 0" fill="#ffd396"/><path d="m256 211h45v30h-45zm0 0" fill="#ffb64c"/></svg>