<svg height="512pt" viewBox="0 -31 512 512" width="512pt" xmlns="http://www.w3.org/2000/svg"><path d="m30 75h30v300h-30zm0 0" fill="#ffd396"/><path d="m452 75h30v300h-30zm0 0" fill="#ffb64c"/><g fill="#efe2dd"><path d="m121 60h30v240h-30zm0 0"/><path d="m181 60h30v240h-30zm0 0"/><path d="m241 60h30v240h-30zm0 0"/></g><path d="m301 60h30v240h-30zm0 0" fill="#e1d3ce"/><path d="m375.375 68.488281 28.976562-7.765625 62.113282 231.816406-28.976563 7.765626zm0 0" fill="#e1d3ce"/><path d="m256 60h15v240h-15zm0 0" fill="#e1d3ce"/><path d="m0 0v45c0 24.898438 20.097656 45 45 45h422c24.902344 0 45-20.101562 45-45v-45zm0 0" fill="#ffd396"/><path d="m512 0v45c0 24.898438-20.097656 45-45 45h-211v-90zm0 0" fill="#ffb64c"/><path d="m467 360h-422c-24.902344 0-45 20.097656-45 45v45h512v-45c0-24.902344-20.097656-45-45-45zm0 0" fill="#c6715a"/><path d="m512 405v45h-256v-90h211c24.902344 0 45 20.097656 45 45zm0 0" fill="#b35f49"/><path d="m166 300c0 16.570312-13.429688 30-30 30s-30-13.429688-30-30 13.429688-30 30-30 30 13.429688 30 30zm0 0" fill="#efe2dd"/><path d="m226 300c0 16.570312-13.429688 30-30 30s-30-13.429688-30-30 13.429688-30 30-30 30 13.429688 30 30zm0 0" fill="#efe2dd"/><path d="m286 300c0 16.5-13.5 30-30 30s-30-13.5-30-30 13.5-30 30-30 30 13.5 30 30zm0 0" fill="#efe2dd"/><path d="m347 300c0 16.570312-14.429688 30-31 30s-30-13.429688-30-30 13.429688-30 30-30 31 13.429688 31 30zm0 0" fill="#e1d3ce"/><path d="m481.992188 296.421875c0 16.570313-13.429688 30-30 30-16.566407 0-30-13.429687-30-30s13.433593-30 30-30c16.570312 0 30 13.429687 30 30zm0 0" fill="#e1d3ce"/><path d="m286 300c0 16.5-13.5 30-30 30v-60c16.5 0 30 13.5 30 30zm0 0" fill="#e1d3ce"/></svg>