<svg height="512pt" viewBox="0 0 512 512" width="512pt" xmlns="http://www.w3.org/2000/svg"><path d="m182.199219 391h147.601562v30h-147.601562zm0 0" fill="#725d57"/><path d="m256 391h73.800781v30h-73.800781zm0 0" fill="#3e322e"/><path d="m241 346h30v151h-30zm0 0" fill="#725d57"/><g fill="#53433f"><path d="m256 391h73.800781v30h-73.800781zm0 0"/><path d="m256 346h15v151h-15zm0 0"/><path d="m362.65625 503.855469-77.140625-151 26.691406-13.710938 77.136719 151zm0 0"/></g><path d="m149.34375 503.855469-26.6875-13.710938 77.136719-151 26.691406 13.710938zm0 0" fill="#725d57"/><path d="m482 75v183.101562l-76 69.898438-150-20.101562-226-30.300782v-202.597656zm0 0" fill="#fff5f5"/><path d="m482 75v183.101562l-76 69.898438-150-20.101562v-232.898438zm0 0" fill="#efe2dd"/><path d="m405.867188 207.878906-82.3125 56.71875-3.398438 48.09375 123.089844 33.308594h38.753906v-88.027344zm0 0" fill="#48b3a1"/><path d="m443.199219 346h-413.199219v-68.402344l166.601562-99.296875 59.398438 40.5zm0 0" fill="#97e9d7"/><path d="m443.199219 346h-187.199219v-127.199219zm0 0" fill="#6cb"/><path d="m316 211c-24.8125 0-45-20.1875-45-45s20.1875-45 45-45 45 20.1875 45 45-20.1875 45-45 45zm0 0" fill="#ffb64c"/><path d="m349 67.800781-26.101562 14.398438-29.097657-52.199219h-75.601562l-29.097657 52.199219-26.101562-14.398438 37.5-67.800781h111zm0 0" fill="#725d57"/><path d="m293.800781 30h-37.800781v-30h55.5l37.5 67.800781-26.101562 14.398438zm0 0" fill="#53433f"/><path d="m0 331h512v30h-512zm0 0" fill="#b35f49"/><path d="m256 331h256v30h-256zm0 0" fill="#99503d"/><path d="m0 60h512v30h-512zm0 0" fill="#b35f49"/><path d="m256 60h256v30h-256zm0 0" fill="#99503d"/><path d="m91 482h90v30h-90zm0 0" fill="#b35f49"/><path d="m331 482h90v30h-90zm0 0" fill="#99503d"/><path d="m211 482h90v30h-90zm0 0" fill="#b35f49"/><path d="m256 482h45v30h-45zm0 0" fill="#99503d"/></svg>