<svg height="512pt" viewBox="0 0 512 512" width="512pt" xmlns="http://www.w3.org/2000/svg"><path d="m166.96875 452h-122.9375l16.875-271h89.1875zm0 0" fill="#e1d3ce"/><path d="m300.097656 181h-88.195312l-16.804688 271h121.804688zm0 0" fill="#e1d3ce"/><path d="m467.96875 452h-122.9375l16.875-271h89.1875zm0 0" fill="#cdbfba"/><path d="m316.902344 452h-60.902344v-271h44.097656zm0 0" fill="#cdbfba"/><path d="m452 81.097656v69.902344h-392v-69.902344l196-81.097656zm0 0" fill="#e1d3ce"/><path d="m234.691406 75.992188 21.300782-21.300782 21.300781 21.300782-21.300781 21.296874zm0 0" fill="#725d57"/><path d="m452 151h-196v-151l196 81.097656zm0 0" fill="#cdbfba"/><path d="m277.300781 76-21.300781 21.300781v-42.601562zm0 0" fill="#53433f"/><path d="m30 121v90h452v-90zm0 0" fill="#fff5f5"/><path d="m256 121h226v90h-226zm0 0" fill="#efe2dd"/><path d="m30 422v75h452v-75zm0 0" fill="#fff5f5"/><path d="m256 422h226v75h-226zm0 0" fill="#efe2dd"/><path d="m0 482h512v30h-512zm0 0" fill="#725d57"/><path d="m256 482h256v30h-256zm0 0" fill="#53433f"/></svg>