<svg height="512pt" viewBox="0 0 512 512" width="512pt" xmlns="http://www.w3.org/2000/svg"><path d="m0 271v241h121l30-31v-210zm0 0" fill="#efe2dd"/><path d="m361 271v210l30 31h121v-241zm0 0" fill="#e1d3ce"/><path d="m412.300781 0h-171.300781v91h171.300781l-45-45zm0 0" fill="#ff637b"/><path d="m367.300781 46 45 45h-156.300781v-91h156.300781zm0 0" fill="#e63950"/><path d="m391 184v328h-60l-30-31h-90l-30 31h-60v-328l120-90h30zm0 0" fill="#fff5f5"/><path d="m391 184v328h-60l-30-31h-45v-387h15zm0 0" fill="#efe2dd"/><path d="m61 361h30v30h-30zm0 0" fill="#6cb"/><path d="m61 421h30v30h-30zm0 0" fill="#6cb"/><path d="m421 361h30v30h-30zm0 0" fill="#48b3a1"/><path d="m421 421h30v30h-30zm0 0" fill="#48b3a1"/><path d="m429.101562 209.5-19.5 22.800781-153.601562-130.5-153.601562 130.5-19.5-22.800781 173.101562-147zm0 0" fill="#c6715a"/><path d="m429.101562 209.5-19.5 22.800781-153.601562-130.5v-39.300781zm0 0" fill="#b35f49"/><path d="m330.398438 361-29.398438 30h-90l-29.398438-30c3.597657-35.699219 24.898438-66.902344 57.296876-83.402344l17.101562-8.398437 17.101562 8.398437c32.398438 16.5 53.699219 47.703125 57.296876 83.402344zm0 0" fill="#c6715a"/><path d="m330.398438 361-29.398438 30h-45v-121.800781l17.101562 8.398437c32.398438 16.5 53.699219 47.703125 57.296876 83.402344zm0 0" fill="#b35f49"/><path d="m331 371.5v140.5h-30l-15-31-15 31h-30l-15-31-15 31h-30v-140.5c0-3.601562.300781-6.898438.601562-10.5h148.796876c.300781 3.601562.601562 6.898438.601562 10.5zm0 0" fill="#725d57"/><path d="m331 371.5v140.5h-30l-15-31-15 31h-15v-151h74.398438c.300781 3.601562.601562 6.898438.601562 10.5zm0 0" fill="#53433f"/><path d="m211 391h30v121h-30zm0 0" fill="#97e9d7"/><path d="m271 391h30v121h-30zm0 0" fill="#73e6d3"/><path d="m256 151c-24.902344 0-45 20.097656-45 45 0 24.898438 20.097656 45 45 45s45-20.101562 45-45c0-24.902344-20.097656-45-45-45zm0 0" fill="#ff637b"/><path d="m256 241v-90c24.902344 0 45 20.097656 45 45 0 24.898438-20.097656 45-45 45zm0 0" fill="#e63950"/><path d="m256 211c-8.269531 0-15-6.730469-15-15s6.730469-15 15-15 15 6.730469 15 15-6.730469 15-15 15zm0 0" fill="#fff5f5"/><path d="m271 196c0-8.269531-6.730469-15-15-15v30c8.269531 0 15-6.730469 15-15zm0 0" fill="#efe2dd"/></svg>