<svg height="512pt" viewBox="-91 0 512 512" width="512pt" xmlns="http://www.w3.org/2000/svg"><path d="m330 61v360l-30 30h-270l-30-30v-360l30-31h270zm0 0" fill="#53433f"/><path d="m330 61v360l-30 30h-135v-421h135zm0 0" fill="#3e322e"/><path d="m30 91h270v300h-270zm0 0" fill="#ffd396"/><path d="m165 91h135v300h-135zm0 0" fill="#ffb64c"/><path d="m270 151v150h-23.699219c-32.101562 0-51 12.898438-69.300781 25.199219l-12 7.800781-11.699219-7.800781c-19.5-12.898438-37.5-25.199219-69.601562-25.199219h-23.699219v-150h23.699219c2.101562 0 4.199219 0 6.300781.300781l30 59.699219h90l30-59.699219c2.101562-.300781 4.199219-.300781 6.300781-.300781zm0 0" fill="#b35f49"/><path d="m270 151v150h-23.699219c-32.101562 0-51 12.898438-69.300781 25.199219l-12 7.800781v-123h45l30-59.699219c2.101562-.300781 4.199219-.300781 6.300781-.300781zm0 0" fill="#99503d"/><path d="m240 151.300781v119.699219c-34.5 1.5-57 15-75 27-18.898438-12.601562-40.800781-25.5-75-27v-119.699219c34.199219 1.199219 57 14.398438 75 26.699219 18.898438-12.601562 40.800781-25.5 75-26.699219zm0 0" fill="#fff5f5"/><path d="m240 151.300781v119.699219c-34.5 1.5-57 15-75 27v-120c18.898438-12.601562 40.800781-25.5 75-26.699219zm0 0" fill="#efe2dd"/><path d="m0 0h330v61h-330zm0 0" fill="#fff5f5"/><path d="m0 421h330v91h-330zm0 0" fill="#fff5f5"/><g fill="#efe2dd"><path d="m165 0h165v61h-165zm0 0"/><path d="m165 421h165v91h-165zm0 0"/></g></svg>