<svg height="512pt" viewBox="0 -16 512 512" width="512pt" xmlns="http://www.w3.org/2000/svg"><path d="m0 0v150h31v60h45.902344l37.5-60h186.597656v-150zm0 0" fill="#ff637b"/><path d="m136 0h165v150h-165zm0 0" fill="#e63950"/><path d="m211 60v150h186.597656l37.5 60h45.902344v-60h31v-150zm0 0" fill="#ffd396"/><path d="m512 60v150h-31v60h-45.902344l-37.5-60h-21.597656v-150zm0 0" fill="#ffb64c"/><g fill="#725d57"><path d="m136 270c-33 0-60 27-60 60s27 60 60 60 60-27 60-60-27-60-60-60zm0 0"/><path d="m376 270c-33 0-60 27-60 60s27 60 60 60 60-27 60-60-27-60-60-60zm0 0"/><path d="m271 120h30v30h-30zm0 0"/><path d="m346 120h30v30h-30zm0 0"/></g><path d="m421 120h30v30h-30zm0 0" fill="#53433f"/><path d="m166 390h-60c-41.398438 0-75 33.601562-75 75v15h210v-15c0-41.398438-33.601562-75-75-75zm0 0" fill="#725d57"/><path d="m406 390h-60c-41.398438 0-75 33.601562-75 75v15h210v-15c0-41.398438-33.601562-75-75-75zm0 0" fill="#725d57"/><path d="m376 390v-120c33 0 60 27 60 60s-27 60-60 60zm0 0" fill="#53433f"/><path d="m481 465v15h-105v-90h30c41.398438 0 75 33.601562 75 75zm0 0" fill="#53433f"/><path d="m136 390v-120c33 0 60 27 60 60s-27 60-60 60zm0 0" fill="#53433f"/><path d="m241 465v15h-105v-90h30c41.398438 0 75 33.601562 75 75zm0 0" fill="#53433f"/></svg>