<svg height="512pt" viewBox="-91 0 512 512" width="512pt" xmlns="http://www.w3.org/2000/svg"><path d="m270 196h-210c0-41.398438 33.601562-75 75-75h60c41.398438 0 75 33.601562 75 75zm0 0" fill="#725d57"/><path d="m270 196h-105v-75h30c41.398438 0 75 33.601562 75 75zm0 0" fill="#53433f"/><path d="m300 211-30 271h-210l-30-271zm0 0" fill="#b35f49"/><path d="m300 211-30 271h-105v-271zm0 0" fill="#99503d"/><path d="m98.101562 301 15 91h103.796876l15-91zm0 0" fill="#fff5f5"/><path d="m165 0c-33 0-60 28-60 61s27 60 60 60 60-27 60-60-27-61-60-61zm0 0" fill="#725d57"/><path d="m165 121v-121c33 0 60 28 60 61s-27 60-60 60zm0 0" fill="#53433f"/><path d="m216.898438 392h-51.898438v-91h66.898438zm0 0" fill="#efe2dd"/><path d="m300 497v15h-270v-15c0-24.902344 20.097656-45 45-45h180c24.902344 0 45 20.097656 45 45zm0 0" fill="#c6715a"/><path d="m300 497v15h-135v-60h90c24.902344 0 45 20.097656 45 45zm0 0" fill="#b35f49"/><path d="m330 181v15c0 24.898438-20.097656 45-45 45h-240c-24.902344 0-45-20.101562-45-45v-15zm0 0" fill="#c6715a"/><path d="m330 181v15c0 24.898438-20.097656 45-45 45h-120v-60zm0 0" fill="#b35f49"/></svg>