<svg height="512pt" viewBox="0 0 512 512" width="512pt" xmlns="http://www.w3.org/2000/svg"><path d="m376 482-30 15h-180l-30-15c24.902344 0 45-20.101562 45-45v-46h150v46c0 24.898438 20.097656 45 45 45zm0 0" fill="#efe2dd"/><path d="m376 482-30 15h-90v-106h75v46c0 24.898438 20.097656 45 45 45zm0 0" fill="#e1d3ce"/><path d="m512 0v361l-30 30h-452l-30-30v-361zm0 0" fill="#53433f"/><path d="m512 0v361l-30 30h-226v-391zm0 0" fill="#3e322e"/><path d="m30 30h452v301h-452zm0 0" fill="#ffd396"/><path d="m256 30h226v301h-226zm0 0" fill="#ffb64c"/><path d="m362.800781 235.199219-106.800781 35.699219-106.800781-35.699219 12-80.101563h189.601562zm0 0" fill="#53433f"/><path d="m362.800781 235.199219-106.800781 35.699219v-115.800782h94.800781zm0 0" fill="#3e322e"/><path d="m256 58.800781-162.597656 76.199219 162.597656 76.199219 162.597656-76.199219zm0 0" fill="#725d57"/><path d="m418.597656 135-162.597656 76.199219v-152.398438zm0 0" fill="#53433f"/><path d="m121 482h270v30h-270zm0 0" fill="#fff5f5"/><path d="m256 482h135v30h-135zm0 0" fill="#efe2dd"/><path d="m0 361h512v61h-512zm0 0" fill="#fff5f5"/><path d="m256 361h256v61h-256zm0 0" fill="#efe2dd"/></svg>