<svg height="512pt" viewBox="0 0 512 512" width="512pt" xmlns="http://www.w3.org/2000/svg"><path d="m512 181v331h-512v-331l31-30h451zm0 0" fill="#fff5f5"/><path d="m512 181v331h-256v-361h226zm0 0" fill="#efe2dd"/><path d="m0 61h512v120h-512zm0 0" fill="#97e9d7"/><path d="m256 61h256v120h-256zm0 0" fill="#6cb"/><path d="m196 0h120v136h-120zm0 0" fill="#fff5f5"/><g fill="#cdbfba"><path d="m331 271h90v30h-90zm0 0"/><path d="m301 361h150v30h-150zm0 0"/><path d="m301 421h150v30h-150zm0 0"/></g><path d="m256 0h60v136h-60zm0 0" fill="#efe2dd"/><path d="m151 121h210v30h-210zm0 0" fill="#725d57"/><path d="m391 121h30v30h-30zm0 0" fill="#53433f"/><path d="m91 121h30v30h-30zm0 0" fill="#725d57"/><path d="m256 121h105v30h-105zm0 0" fill="#53433f"/><path d="m166 241c-33 0-60 27-60 60s27 60 60 60 60-27 60-60-27-60-60-60zm0 0" fill="#725d57"/><path d="m256 391.300781c-13.5-18.300781-35.398438-30.300781-60-30.300781h-60c-41.398438 0-75 33.601562-75 75v15h210v-15c0-16.800781-5.398438-32.402344-15-44.699219zm0 0" fill="#725d57"/><path d="m166 361v-120c33 0 60 27 60 60s-27 60-60 60zm0 0" fill="#53433f"/><path d="m271 436v15h-105v-90h30c24.601562 0 46.5 12 60 30.300781 9.601562 12.296875 15 27.898438 15 44.699219zm0 0" fill="#53433f"/></svg>