<svg height="511.99988pt" viewBox="0 1 511.99988 511.99988" width="511.99988pt" xmlns="http://www.w3.org/2000/svg"><path d="m180.3125 437.753906c-29.273438 29.273438-76.792969 29.273438-106.066406 0-29.273438-29.273437-29.273438-76.792968 0-106.066406zm0 0" fill="#ffd396"/><path d="m127.277344 384.722656 53.035156 53.03125c-29.273438 29.273438-76.792969 29.273438-106.066406 0zm0 0" fill="#ffb64c"/><path d="m494.5 102.355469c-1.273438 1.269531-2.335938 2.332031-3.820312 3.390625l-118.457032 100.644531-66.613281-66.609375c100.761719-119.007812 103.402344-121.644531 104.035156-122.28125 23.335938-23.335938 61.519531-23.332031 84.855469 0 23.332031 23.335938 23.335938 61.519531 0 84.855469zm0 0" fill="#b35f49"/><path d="m494.5 102.355469c-1.273438 1.269531-2.335938 2.332031-3.820312 3.390625l-118.457032 100.644531-33.308594-33.304687 155.585938-155.585938c23.332031 23.335938 23.335938 61.519531 0 84.855469zm0 0" fill="#99503d"/><path d="m253.921875 420.570312-162.703125-162.707031c17.605469-8.269531 33.941406-19.515625 47.726562-33.300781l62.582032-62.582031c40.941406-40.941407 107.550781-40.941407 148.492187 0 40.941407 40.941406 40.941407 107.550781 0 148.492187l-63.640625 63.640625c-13.578125 13.578125-24.394531 29.0625-32.457031 46.457031zm0 0" fill="#ffd396"/><path d="m253.921875 420.570312-81.246094-81.246093 177.34375-177.34375c40.941407 40.941406 40.941407 107.550781 0 148.492187l-63.640625 63.640625c-13.578125 13.578125-24.394531 29.0625-32.457031 46.457031zm0 0" fill="#ffb64c"/><path d="m243.953125 395.328125-127.28125-127.28125c-29.273437-29.273437-76.789063-29.273437-106.066406 0l-10.605469 10.609375 233.34375 233.34375 10.609375-10.605469c29.273437-29.277343 29.273437-76.792969 0-106.066406zm0 0" fill="#ffb64c"/><path d="m243.953125 501.394531-10.609375 10.605469-116.671875-116.671875 63.640625-63.640625 63.640625 63.640625c29.273437 29.273437 29.273437 76.789063 0 106.066406zm0 0" fill="#ff9c5e"/></svg>