<svg height="512pt" viewBox="0 0 512 512" width="512pt" xmlns="http://www.w3.org/2000/svg"><path d="m376 482-30 15h-180l-30-15c24.902344 0 45-20.101562 45-45v-15h150v15c0 24.898438 20.097656 45 45 45zm0 0" fill="#efe2dd"/><path d="m376 482-30 15h-90v-75h75v15c0 24.898438 20.097656 45 45 45zm0 0" fill="#e1d3ce"/><path d="m512 90v300l-30 32h-452l-30-32v-300zm0 0" fill="#53433f"/><path d="m512 90v300l-30 32h-226v-332zm0 0" fill="#3e322e"/><path d="m30 120h452v240h-452zm0 0" fill="#ffd396"/><path d="m256 120h226v240h-226zm0 0" fill="#ffb64c"/><path d="m0 390h512v62h-512zm0 0" fill="#fff5f5"/><path d="m256 390h256v62h-256zm0 0" fill="#efe2dd"/><path d="m121 482h270v30h-270zm0 0" fill="#fff5f5"/><path d="m256 482h135v30h-135zm0 0" fill="#efe2dd"/><path d="m451 30v300h-390v-300h75l30 30h180l30-30zm0 0" fill="#b35f49"/><path d="m451 30v300h-195v-270h90l30-30zm0 0" fill="#99503d"/><path d="m391 0v270h-75c-33.300781 0-60 27.300781-60 60 0-33-27-60-60-60h-75v-270h75c24.601562 0 46.199219 11.699219 60 30 13.800781-18.300781 35.398438-30 60-30zm0 0" fill="#fff5f5"/><path d="m391 0v270h-75c-33.300781 0-60 27.300781-60 60v-300c13.800781-18.300781 35.398438-30 60-30zm0 0" fill="#efe2dd"/><g fill="#e1d3ce"><path d="m181 60h30v30h-30zm0 0"/><path d="m181 120h30v30h-30zm0 0"/><path d="m181 180h30v30h-30zm0 0"/></g><path d="m301 60h30v30h-30zm0 0" fill="#cdbfba"/><path d="m301 120h30v30h-30zm0 0" fill="#cdbfba"/><path d="m301 180h30v30h-30zm0 0" fill="#cdbfba"/></svg>