<svg height="512pt" viewBox="-58 0 512 512" width="512pt" xmlns="http://www.w3.org/2000/svg"><path d="m333 463.699219-34.503906-27 6.003906 37.199219-46.800781 38.101562-59.398438-127.800781-.300781.601562-59.699219 127.199219-47.402343-38.402344 6.601562-36.898437-35.101562 27-62.398438-9.597657 61.5-131.402343 27.300781-17.398438 45.898438 10.5 30 6.597657 13.199219 3h40.199218l13.203125-3 30-6.597657 45.898438-10.5 27.300781 17.398438 61.496094 131.402343zm0 0" fill="#ff637b"/><path d="m333 463.699219-34.503906-27 6.003906 37.199219-46.800781 38.101562-59.398438-127.800781-.300781.601562v-59.402343h20.097656l13.203125-3 30-6.597657 45.898438-10.5 27.300781 17.398438 61.496094 131.402343zm0 0" fill="#e63950"/><path d="m134.664062 315.726562-72.304687 147.980469 20.285156 3.101563 8.292969 6.734375 73.820312-151.078125zm0 0" fill="#e63950"/><path d="m333.019531 463.800781-71.773437-148.054687-30.058594 6.730468 73.414062 151.4375 8.753907-7.105468zm0 0" fill="#ae2538"/><path d="m377.699219 186.699219-6.597657-7.199219c-3.902343-4.5-5.101562-11.101562-2.402343-16.5l4.5-8.699219c5.699219-12.300781 6-26.101562.296875-38.402343-5.699219-12.300782-16.195313-21.296876-29.097656-24.898438l-9.597657-2.402344c-6-1.496094-10.203125-6.597656-11.101562-12.597656l-.902344-9.902344c-1.800781-13.199218-9.300781-28.898437-20.398437-36.097656-11.402344-7.5-25.199219-9.300781-38.097657-5.101562l-9.300781 3c-6 1.800781-12.300781 0-16.203125-4.800782l-6-7.5c-8.699219-10.5-21.898437-15.597656-34.796875-15.597656-12.902344 0-26.101562 5.097656-34.800781 15.597656l-6 7.5c-3.898438 4.800782-10.199219 6.601563-16.203125 4.800782l-9.296875-3c-12.898438-4.199219-26.699219-2.398438-38.097657 4.800781-11.101562 7.5-18.601562 23.199219-20.402343 36.402343l-.898438 9.898438c-.902343 6-5.101562 11.101562-11.101562 12.597656l-9.601563 2.402344c-12.898437 3.601562-23.398437 12.597656-29.097656 24.898438-5.699219 12.300781-5.402344 26.101562.296875 38.402343l4.503906 8.699219c2.699219 5.398438 1.5 12-2.402343 16.5l-6.597657 7.199219c-9 10.199219-13.203125 23.398437-11.402343 36.898437 2.101562 13.203125 9.601562 25.902344 21.300781 32.800782l8.398437 5.097656c5.101563 3.304687 7.800782 9.300781 6.898438 15.300781l-1.796875 9.601563c-2.101563 13.5 1.796875 26.699218 10.5 36.898437 8.699219 10.199219 21 15.601563 35.097656 15.601563l9.601563-.300782c6.597656.601563 11.699218 3.601563 14.097656 9l3.902344 9c5.398437 12.601563 15.898437 21.601563 28.800781 25.5 12.898437 3.898438 26.699219 1.800782 37.796875-6l8.101562-5.398437c2.398438-1.5 5.402344-2.402344 8.398438-2.402344 3 0 6 .902344 8.402344 2.402344l8.097656 5.398437c11.402344 7.800782 25.503906 9.601563 37.800781 6 12.902344-3.898437 23.402344-12.898437 28.800781-25.5l3.902344-9c2.398438-5.398437 8.097656-8.398437 14.097656-9l9.601563.300782c12.898437.300781 26.398437-5.402344 35.097656-15.601563s12.601563-23.398437 10.5-36.898437l-1.800781-9.601563c-.898438-6 1.800781-11.996094 7.203125-15.300781l8.097656-5.097656c11.699219-6.898438 19.199219-19.597657 21.300781-32.800782 1.800782-13.5-2.398437-26.699218-11.398437-36.898437zm0 0" fill="#ffd396"/><path d="m389.097656 223.597656c-2.097656 13.203125-9.597656 25.902344-21.300781 32.800782l-8.097656 5.097656c-5.398438 3.304687-8.101563 9.300781-7.199219 15.300781l1.800781 9.601563c2.097657 13.5-1.800781 26.699218-10.503906 36.898437-8.699219 10.203125-22.199219 15.902344-35.097656 15.601563l-9.601563-.300782c-6 .601563-11.699218 3.601563-14.097656 9l-3.898438 9.003906c-5.402343 12.597657-15.902343 21.597657-28.800781 25.496094-12.300781 3.601563-26.402343 1.800782-37.800781-6l-8.101562-5.398437c-2.398438-1.5-5.402344-2.402344-8.398438-2.402344v-368.296875c12.898438 0 26.097656 5.097656 34.796875 15.597656l6 7.5c3.902344 4.800782 10.203125 6.601563 16.203125 4.800782l9.300781-3c12.898438-4.199219 26.695313-2.398438 38.097657 5.101562 11.097656 7.199219 18.597656 22.898438 20.398437 36.097656l.902344 9.902344c.898437 6 5.097656 11.101562 11.101562 12.597656l9.597657 2.402344c12.902343 3.601562 23.398437 12.597656 29.097656 24.898438 5.703125 12.300781 5.402344 26.101562-.296875 38.402343l-4.5 8.699219c-2.703125 5.398438-1.5 12 2.402343 16.5l6.597657 7.199219c9 10.199219 13.199219 23.398437 11.398437 36.898437zm0 0" fill="#ffb64c"/><path d="m198 91c-57.902344 0-105 47.101562-105 105s47.097656 106 105 106c57.898438 0 105-48.101562 105-106s-47.101562-105-105-105zm0 0" fill="#ffb64c"/><path d="m198 302v-211c57.898438 0 105 47.101562 105 105s-47.101562 106-105 106zm0 0" fill="#ff9c5e"/></svg>