<svg height="512pt" viewBox="-61 0 512 512" width="512pt" xmlns="http://www.w3.org/2000/svg"><path d="m360 452c0 41.101562-85.5 60-165 60s-165-18.898438-165-60c0-41.398438 80.699219-54 115.199219-57.601562h99.601562c34.5 3.601562 115.199219 16.203124 115.199219 57.601562zm0 0" fill="#97e9d7"/><path d="m360 452c0 41.101562-85.5 60-165 60v-117.601562h49.800781c34.5 3.601562 115.199219 16.203124 115.199219 57.601562zm0 0" fill="#6cb"/><path d="m195 0c-107.402344 0-195 88.597656-195 196 0 80.097656 34.199219 116.800781 108.601562 195.097656 15.898438 16.5 33.296876 34.800782 52.796876 56.101563l4.503906 4.800781h58.195312l4.503906-4.800781c19.5-21.300781 37.199219-39.898438 53.097657-56.398438 72-75 108.300781-113.800781 108.300781-194.800781 0-107.402344-87.597656-196-195-196zm0 0" fill="#ff637b"/><path d="m390 196c0 81-36.300781 119.800781-108.300781 194.800781-15.898438 16.5-33.597657 35.097657-53.101563 56.398438l-4.5 4.800781h-29.097656v-452c107.402344 0 195 88.597656 195 196zm0 0" fill="#e63950"/><path d="m300 121v150h-23.699219c-32.101562 0-51 12.898438-69.300781 25.199219l-12 7.800781-11.699219-7.800781c-19.5-12.898438-37.5-25.199219-69.601562-25.199219h-23.699219v-150h23.699219c2.101562 0 4.199219 0 6.300781.300781l30 59.699219h90l30-59.699219c2.101562-.300781 4.199219-.300781 6.300781-.300781zm0 0" fill="#725d57"/><path d="m300 121v150h-23.699219c-32.101562 0-51 12.898438-69.300781 25.199219l-12 7.800781v-123h45l30-59.699219c2.101562-.300781 4.199219-.300781 6.300781-.300781zm0 0" fill="#53433f"/><path d="m270 121.300781v119.699219c-34.5 1.5-57 15-75 27-18.898438-12.601562-40.800781-25.5-75-27v-119.699219c34.199219 1.199219 57 14.398438 75 26.699219 18.898438-12.601562 40.800781-25.5 75-26.699219zm0 0" fill="#fff5f5"/><path d="m270 121.300781v119.699219c-34.5 1.5-57 15-75 27v-120c18.898438-12.601562 40.800781-25.5 75-26.699219zm0 0" fill="#efe2dd"/></svg>