<svg height="512pt" viewBox="-12 0 512 512" width="512pt" xmlns="http://www.w3.org/2000/svg"><path d="m324.492188 400.898438-80.699219 54.101562-80.699219-54.101562 16.5-24.898438 64.199219 42 64.203125-42zm0 0" fill="#725d57"/><path d="m324.492188 400.898438-80.699219 54.101562v-37l64.203125-42zm0 0" fill="#53433f"/><path d="m434.292969 486.5-20.996094 21-169.503906-170.199219-169.5 170.199219-20.996094-21 190.496094-191.800781zm0 0" fill="#725d57"/><path d="m434.292969 486.5-20.996094 21-169.503906-170.199219v-42.601562zm0 0" fill="#53433f"/><path d="m158.636719 91.640625 29.398437 63.011719-27.1875 12.6875-29.398437-63.015625zm0 0" fill="#725d57"/><path d="m87.003906 257.445312-19.019531-40.78125-67.984375 31.699219 19.019531 40.78125 19.023438 40.78125 67.984375-31.699219zm0 0" fill="#725d57"/><path d="m106.027344 298.226562-19.023438-40.78125-67.984375 31.699219 19.023438 40.78125zm0 0" fill="#53433f"/><path d="m358.273438 130.949219-31.101563-66.714844-278.847656 145.78125 25.070312 53.773437 25.074219 53.773438 290.917969-119.882812zm0 0" fill="#ffd396"/><path d="m389.386719 197.679688-31.113281-66.730469-284.878907 132.839843 25.074219 53.773438zm0 0" fill="#ff9c5e"/><path d="m228.792969 256h30v241h-30zm0 0" fill="#725d57"/><path d="m110.597656 130.589844-12.6875-27.1875 81.578125-38.042969 12.683594 27.191406zm0 0" fill="#c6715a"/><path d="m481.246094 73.609375c-17.492188-37.457031-62.152344-53.730469-99.683594-36.269531l31.707031 67.964844 31.707031 67.972656c37.578126-17.535156 53.773438-62.117188 36.269532-99.667969zm0 0" fill="#fff5f5"/><path d="m481.246094 73.609375-67.976563 31.695313 31.707031 67.972656c37.578126-17.535156 53.773438-62.117188 36.269532-99.667969zm0 0" fill="#efe2dd"/><path d="m426.859375 98.96875-46.144531-98.96875-72.070313 58.417969 36.652344 78.585937 36.648437 78.578125 91.066407-17.636719zm0 0" fill="#725d57"/><path d="m473.011719 197.945312-46.152344-98.976562-81.5625 38.035156 36.648437 78.578125zm0 0" fill="#53433f"/><path d="m243.792969 256h15v241h-15zm0 0" fill="#53433f"/><path d="m243.792969 181c-24.898438 0-45 20.097656-45 45 0 24.898438 20.101562 45 45 45 24.902343 0 45-20.101562 45-45 0-24.902344-20.097657-45-45-45zm0 0" fill="#c6715a"/><path d="m243.792969 271v-90c24.902343 0 45 20.097656 45 45 0 24.898438-20.097657 45-45 45zm0 0" fill="#b35f49"/><path d="m198.792969 482h90v30h-90zm0 0" fill="#c6715a"/><path d="m378.792969 482h90v30h-90zm0 0" fill="#b35f49"/><path d="m18.792969 482h90v30h-90zm0 0" fill="#c6715a"/><path d="m243.792969 482h45v30h-45zm0 0" fill="#b35f49"/></svg>