<svg height="512pt" viewBox="-61 0 512 512" width="512pt" xmlns="http://www.w3.org/2000/svg"><path d="m60 0h330v481h-330zm0 0" fill="#ffb64c"/><path d="m225 0h165v481h-165zm0 0" fill="#ff9c5e"/><path d="m300 181v331h-300v-451h180zm0 0" fill="#fff5f5"/><path d="m300 181v331h-150v-451h30zm0 0" fill="#efe2dd"/><g fill="#e1d3ce"><path d="m60 181h60v30h-60zm0 0"/><path d="m201.210938 61h-21.210938v120h120v-21.210938zm0 0"/><path d="m60 301h180v30h-180zm0 0"/><path d="m60 241h180v30h-180zm0 0"/><path d="m60 361h180v30h-180zm0 0"/><path d="m60 421h180v30h-180zm0 0"/></g><path d="m150 241h90v30h-90zm0 0" fill="#cdbfba"/><path d="m150 301h90v30h-90zm0 0" fill="#cdbfba"/><path d="m150 361h90v30h-90zm0 0" fill="#cdbfba"/><path d="m150 421h90v30h-90zm0 0" fill="#cdbfba"/></svg>