<svg height="512pt" viewBox="-61 0 512 512" width="512pt" xmlns="http://www.w3.org/2000/svg"><path d="m390 120v392h-390v-392l30-30h330zm0 0" fill="#fff5f5"/><path d="m390 120v392h-195v-422h165zm0 0" fill="#efe2dd"/><path d="m0 30h390v90h-390zm0 0" fill="#c6715a"/><path d="m195 30h195v90h-195zm0 0" fill="#b35f49"/><g fill="#e1d3ce"><path d="m120 181h150v30h-150zm0 0"/><path d="m60 241h270v30h-270zm0 0"/><path d="m60 301h270v30h-270zm0 0"/><path d="m60 361h270v30h-270zm0 0"/><path d="m60 421h210v30h-210zm0 0"/></g><path d="m195 181h75v30h-75zm0 0" fill="#cdbfba"/><path d="m195 421h75v30h-75zm0 0" fill="#cdbfba"/><path d="m195 241h135v30h-135zm0 0" fill="#cdbfba"/><path d="m195 301h135v30h-135zm0 0" fill="#cdbfba"/><path d="m195 361h135v30h-135zm0 0" fill="#cdbfba"/><path d="m60 0h30v90h-30zm0 0" fill="#725d57"/><path d="m120 0h30v90h-30zm0 0" fill="#725d57"/><path d="m180 0h30v90h-30zm0 0" fill="#725d57"/><path d="m240 0h30v90h-30zm0 0" fill="#53433f"/><path d="m300 0h30v90h-30zm0 0" fill="#53433f"/><path d="m195 0h15v90h-15zm0 0" fill="#53433f"/></svg>