<svg height="512pt" viewBox="0 -51 512 512" width="512pt" xmlns="http://www.w3.org/2000/svg"><path d="m474.542969 254.449219c-.480469-1.464844-49.480469-147.128907-78.28125-215.332031-3.105469-7.324219-9.5625-8.746094-12.1875-9.011719-2.648438-.21875-9.359375-.1875-13.945313 6.460937l-25.78125 37.425782-24.695312-17.019532 25.78125-37.425781c9.34375-13.578125 25.296875-21.050781 41.6875-19.292969 16.554687 1.683594 30.292968 11.863282 36.769531 27.203125 29.238281 69.242188 77.078125 211.417969 79.101563 217.441407zm0 0" fill="#53433f"/><path d="m37.339844 254.785156-28.214844-10.226562 77.167969-212.78125c6.519531-15.484375 19.71875-25.605469 35.582031-27.804688 15.90625-2.152344 31.304688 3.972656 41.308594 16.480469l28.535156 35.652344-23.4375 18.75-28.535156-35.667969c-4.804688-6.019531-11.222656-5.84375-13.757813-5.492188-2.546875.351563-8.773437 1.933594-11.773437 9.023438zm0 0" fill="#725d57"/><path d="m302 305.484375h-28c0-8.402344-9.597656-15-18-15s-18 6.597656-18 15h-28c0-24.902344 21.097656-45 46-45s46 20.097656 46 45zm0 0" fill="#53433f"/><path d="m302 305.484375h-28c0-8.402344-9.597656-15-18-15v-30c24.902344 0 46 20.097656 46 45zm0 0" fill="#3e322e"/><path d="m392 410.484375c-66.167969 0-120-53.835937-120-120 0-66.167969 53.832031-120 120-120 48.367188 0 91.773438 28.78125 110.582031 73.34375 6.253907 14.78125 9.417969 30.46875 9.417969 46.65625 0 66.164063-53.832031 120-120 120zm0 0" fill="#53433f"/><path d="m120 410.484375c-66.167969 0-120-53.835937-120-120 0-16.1875 3.164062-31.875 9.417969-46.65625 18.808593-44.546875 62.214843-73.34375 110.582031-73.34375 66.167969 0 120 53.832031 120 120 0 66.164063-53.832031 120-120 120zm0 0" fill="#725d57"/><path d="m392 200.484375c-49.628906 0-90 40.371094-90 90s40.371094 90 90 90 90-40.371094 90-90c0-12.144531-2.371094-23.90625-7.046875-34.96875v-.015625c-14.121094-33.425781-46.667969-55.015625-82.953125-55.015625zm0 0" fill="#efe2dd"/><path d="m120 200.484375c-36.285156 0-68.832031 21.589844-82.953125 55.019531-4.675781 11.070313-7.046875 22.835938-7.046875 34.980469 0 49.628906 40.371094 90 90 90s90-40.371094 90-90-40.371094-90-90-90zm0 0" fill="#fff5f5"/><path d="m141.210938 269.273438c-11.6875-11.691407-30.730469-11.691407-42.421876 0l-21.210937-21.210938c23.378906-23.410156 61.464844-23.410156 84.84375 0zm0 0" fill="#efe2dd"/><path d="m413.210938 269.273438c-11.6875-11.691407-30.730469-11.691407-42.421876 0l-21.210937-21.210938c23.378906-23.410156 61.464844-23.410156 84.84375 0zm0 0" fill="#e1d3ce"/></svg>