<svg height="511pt" viewBox="1 1 511.99971 511" width="511pt" xmlns="http://www.w3.org/2000/svg"><path d="m421.898438 337.648438-43.648438 41.101562-43.855469 40.894531-98.945312-98.945312 84.75-84.75zm0 0" fill="#73e6d3"/><path d="m421.898438 337.648438-43.648438 41.101562-100.425781-100.425781 42.375-42.375zm0 0" fill="#48b3a1"/><path d="m267.230469 182.980469-84.75 84.75-140.105469-140.109375v-42.371094l42.375-42.375h42.371094zm0 0" fill="#73e6d3"/><path d="m127.121094 42.875 140.109375 140.105469-42.375 42.375-161.292969-161.292969 21.1875-21.1875zm0 0" fill="#6cb"/><path d="m0 85.25 84.75-84.75 42.371094 42.375-84.746094 84.746094zm0 0" fill="#725d57"/><path d="m84.75 85.25-42.375-42.375 42.375-42.375 42.371094 42.375zm0 0" fill="#53433f"/><path d="m498.59375 499.09375-164.199219-79.453125 3.390625-18.21875c3.179688-15.890625 11.230469-29.875 22.882813-40.257813 9.746093-9.320312 22.035156-15.679687 36.019531-18.644531l25.210938-4.875zm0 0" fill="#fde4e4"/><path d="m498.59375 499.09375-137.925781-137.929688c9.746093-9.320312 22.035156-15.675781 36.019531-18.644531l25.210938-4.871093zm0 0" fill="#fcced3"/><path d="m457.910156 479.601562 21.1875-21.183593 32.777344 32.777343-21.183594 21.1875zm0 0" fill="#c6715a"/><path d="m468.503906 469.007812 10.59375-10.59375 32.777344 32.78125-10.59375 10.59375zm0 0" fill="#99503d"/><path d="m467.628906 151.316406-31.78125-10.59375 10.59375 31.78125-21.1875 21.1875-31.78125-10.59375 10.59375 31.78125-21.1875 21.1875-31.78125-10.59375 10.59375 31.78125-21.1875 21.1875-31.78125-10.59375 10.59375 31.78125-21.1875 21.1875-31.78125-10.59375 10.59375 31.78125-21.1875 21.1875-31.78125-10.59375 10.597656 31.78125-21.191406 21.183594-31.777344-10.589844 10.589844 31.777344-21.183594 21.1875-31.78125-10.59375 10.59375 31.78125-43.375 43.375-105.9375-105.9375 405.554688-405.554688 105.9375 105.9375zm0 0" fill="#ffd396"/><g fill="#ffb64c"><path d="m467.628906 151.316406-31.78125-10.59375 10.59375 31.78125-21.1875 21.1875-31.78125-10.59375 10.59375 31.78125-21.1875 21.1875-31.78125-10.59375 10.59375 31.78125-21.1875 21.1875-31.78125-10.59375 10.59375 31.78125-21.1875 21.1875-31.78125-10.59375 10.59375 31.78125-21.1875 21.1875-31.78125-10.59375 10.597656 31.78125-21.191406 21.183594-31.777344-10.589844 10.589844 31.777344-21.183594 21.1875-31.78125-10.59375 10.59375 31.78125-43.375 43.375-52.96875-52.96875 405.554688-405.554688 52.96875 52.96875zm0 0"/><path d="m382.875 108.945312 21.1875-21.1875 63.5625 63.5625-21.1875 21.1875zm0 0"/><path d="m340.5 151.320312 21.1875-21.1875 63.5625 63.558594-21.1875 21.1875zm0 0"/><path d="m298.125 193.691406 21.1875-21.1875 63.5625 63.5625-21.1875 21.1875zm0 0"/><path d="m255.75 236.066406 21.1875-21.1875 63.5625 63.5625-21.1875 21.1875zm0 0"/><path d="m213.378906 278.441406 21.1875-21.1875 63.558594 63.5625-21.1875 21.183594zm0 0"/><path d="m171.003906 320.816406 21.1875-21.1875 63.558594 63.558594-21.1875 21.1875zm0 0"/><path d="m128.628906 363.1875 21.1875-21.1875 63.558594 63.5625-21.183594 21.1875zm0 0"/><path d="m86.253906 405.5625 21.1875-21.1875 63.5625 63.5625-21.1875 21.1875zm0 0"/></g><path d="m393.46875 119.539062 21.1875-21.1875 52.96875 52.96875-21.1875 21.1875zm0 0" fill="#ff9c5e"/><path d="m404.066406 214.882812-52.964844-52.96875 21.183594-21.1875 52.96875 52.96875zm0 0" fill="#ff9c5e"/><path d="m361.691406 257.257812-52.964844-52.96875 21.183594-21.1875 52.96875 52.96875zm0 0" fill="#ff9c5e"/><path d="m319.316406 299.632812-52.964844-52.96875 21.183594-21.1875 52.96875 52.96875zm0 0" fill="#ff9c5e"/><path d="m276.941406 342.007812-52.96875-52.96875 21.1875-21.1875 52.96875 52.96875zm0 0" fill="#ff9c5e"/><path d="m234.566406 384.378906-52.96875-52.964844 21.1875-21.1875 52.96875 52.964844zm0 0" fill="#ff9c5e"/><path d="m192.191406 426.753906-52.96875-52.964844 21.1875-21.1875 52.96875 52.96875zm0 0" fill="#ff9c5e"/><path d="m149.816406 469.128906-52.96875-52.96875 21.1875-21.183594 52.96875 52.964844zm0 0" fill="#ff9c5e"/></svg>