<svg height="512pt" viewBox="-91 0 512 512" width="512pt" xmlns="http://www.w3.org/2000/svg"><path d="m45 332c-8.277344 0-15-6.722656-15-15v-75l-30 30v45c0 24.8125 20.1875 45 45 45h30v-30zm0 0" fill="#725d57"/><path d="m240 257h30v60h-30zm0 0" fill="#53433f"/><path d="m120 242h30v75h-30zm0 0" fill="#725d57"/><path d="m317.101562 118.898438-18.902343 153.101562h-88.199219l-30-15-99.601562-75-7.5-63.101562c-8.097657-62.699219 41.101562-118.898438 104.101562-118.898438h36c63.300781 0 112.199219 56.5 104.101562 118.898438zm0 0" fill="#ff637b"/><path d="m210 272-15-7.5v-264.5h18c63.300781 0 112.199219 56.5 104.101562 118.898438l-18.902343 153.101562zm0 0" fill="#e63950"/><path d="m195 212.300781c-13.5-18.300781-35.398438-30.300781-60-30.300781h-60c-41.398438 0-75 33.601562-75 75v15h210v-15c0-16.800781-5.398438-32.402344-15-44.699219zm0 0" fill="#ffb64c"/><path d="m112.5 422h165v30h-165zm0 0" fill="#53433f"/><path d="m195 422h82.5v30h-82.5zm0 0" fill="#3e322e"/><path d="m279.332031 330.824219 20.53125 164.316406-29.765625 3.71875-20.535156-164.316406zm0 0" fill="#3e322e"/><path d="m110.671875 330.828125 29.765625 3.71875-20.535156 164.316406-29.765625-3.71875zm0 0" fill="#53433f"/><path d="m240 482h90v30h-90zm0 0" fill="#53433f"/><path d="m60 482h90v30h-90zm0 0" fill="#725d57"/><path d="m60 302v90h270v-90zm0 0" fill="#ff637b"/><path d="m195 302h135v90h-135zm0 0" fill="#e63950"/><path d="m210 257v15h-15v-59.699219c9.601562 12.296875 15 27.898438 15 44.699219zm0 0" fill="#ff9c5e"/></svg>