<svg height="512pt" viewBox="0 -16 512 512" width="512pt" xmlns="http://www.w3.org/2000/svg"><path d="m257 420v-30c57.890625 0 105-47.109375 105-105v-60h30v60c0 74.441406-60.558594 135-135 135zm0 0" fill="#e1d3ce"/><path d="m377 240c-24.8125 0-45-20.1875-45-45s20.1875-45 45-45 45 20.1875 45 45-20.1875 45-45 45zm0 0" fill="#e1d3ce"/><path d="m90 300h182v120h-182zm0 0" fill="#e63950"/><path d="m181 300h91v120h-91zm0 0" fill="#ae2538"/><path d="m181 0c-99.300781 0-181 80.699219-181 180s81.699219 180 181 180 181-80.699219 181-180-81.699219-180-181-180zm0 0" fill="#ff637b"/><path d="m181 360v-360c99.300781 0 181 80.699219 181 180s-81.699219 180-181 180zm0 0" fill="#e63950"/><path d="m332 465h-302c0-41.398438 33.601562-75 75-75h152c41.398438 0 75 33.601562 75 75zm0 0" fill="#ff637b"/><g fill="#ffb64c"><path d="m440.632812 237.417969 42.433594 42.433593-21.210937 21.210938-42.433594-42.433594zm0 0"/><path d="m452 180h60v30h-60zm0 0"/><path d="m461.855469 88.925781 21.210937 21.210938-42.433594 42.4375-21.210937-21.210938zm0 0"/></g><path d="m332 465h-151v-75h76c41.398438 0 75 33.601562 75 75zm0 0" fill="#e63950"/><path d="m0 450h362v30h-362zm0 0" fill="#e63950"/><path d="m181 450h181v30h-181zm0 0" fill="#ae2538"/><path d="m181 120c-33 0-61 27-61 60s28 60 61 60 61-27 61-60-28-60-61-60zm0 0" fill="#725d57"/><path d="m181 240v-120c33 0 61 27 61 60s-28 60-61 60zm0 0" fill="#53433f"/></svg>